<svg xmlns="http://www.w3.org/2000/svg" xmlns:xlink="http://www.w3.org/1999/xlink" xmlns:inkscape="http://www.inkscape.org/namespaces/inkscape" version="1.1" width="1571" height="1448" viewBox="0 0 1571 1448">
<path transform="matrix(.735422,0,0,.735422,1220.52,180.2226)" stroke-width="1" stroke-linecap="round" stroke-linejoin="round" fill="none" stroke="#454545" d="M0 0H13V-35H27"/>
<path transform="matrix(.735422,0,0,.735422,1233.0222,737.6725)" stroke-width="1" stroke-linecap="round" stroke-linejoin="round" fill="none" stroke="#454545" d="M0 0H13V-35H27"/>
<path transform="matrix(.735422,0,0,.735422,1230.0805,180.2226)" stroke-width="1" stroke-linecap="round" stroke-linejoin="round" fill="none" stroke="#454545" d="M0 0H14"/>
<path transform="matrix(.735422,0,0,.735422,1230.0805,180.2226)" stroke-width="1" stroke-linecap="round" stroke-linejoin="round" fill="none" stroke="#454545" d="M0 0V35H14"/>
<path transform="matrix(.735422,0,0,.735422,1242.5827,737.6725)" stroke-width="1" stroke-linecap="round" stroke-linejoin="round" fill="none" stroke="#454545" d="M0 0V35H14"/>
<path transform="matrix(.735422,0,0,.735422,1242.5827,737.6725)" stroke-width="1" stroke-linecap="round" stroke-linejoin="round" fill="none" stroke="#454545" d="M0 0H14"/>
<path transform="matrix(.735422,0,0,.735422,192.40003,884.75686)" stroke-width="3" stroke-linecap="round" stroke-linejoin="round" fill="none" stroke="#454545" d="M0 0H32V-598H63"/>
<path transform="matrix(.735422,0,0,.735422,192.40003,884.75686)" stroke-width="3" stroke-linecap="round" stroke-linejoin="round" fill="none" stroke="#454545" d="M0 0H32V69H63"/>
<path transform="matrix(.735422,0,0,.735422,192.40003,884.75686)" stroke-width="3" stroke-linecap="round" stroke-linejoin="round" fill="none" stroke="#454545" d="M0 0H32V598H63"/>
<path transform="matrix(.735422,0,0,.735422,621.151,444.97456)" stroke-width="1" stroke-linecap="round" stroke-linejoin="round" fill="none" stroke="#454545" d="M0 0H14V-201H27"/>
<path transform="matrix(.735422,0,0,.735422,631.447,444.97456)" stroke-width="1" stroke-linecap="round" stroke-linejoin="round" fill="none" stroke="#454545" d="M0 0V53H13"/>
<path transform="matrix(.735422,0,0,.735422,631.447,444.97456)" stroke-width="1" stroke-linecap="round" stroke-linejoin="round" fill="none" stroke="#454545" d="M0 0V201H13"/>
<path transform="matrix(.735422,0,0,.735422,443.17897,935.501)" stroke-width="1" stroke-linecap="round" stroke-linejoin="round" fill="none" stroke="#454545" d="M0 0H14V-204H27"/>
<path transform="matrix(.735422,0,0,.735422,453.47486,935.501)" stroke-width="1" stroke-linecap="round" stroke-linejoin="round" fill="none" stroke="#454545" d="M0 0V-22H13"/>
<path transform="matrix(.735422,0,0,.735422,453.47486,935.501)" stroke-width="1" stroke-linecap="round" stroke-linejoin="round" fill="none" stroke="#454545" d="M0 0V204H13"/>
<path transform="matrix(.735422,0,0,.735422,475.53749,1324.5393)" stroke-width="1" stroke-linecap="round" stroke-linejoin="round" fill="none" stroke="#454545" d="M0 0H14V-79H27"/>
<path transform="matrix(.735422,0,0,.735422,485.83338,1324.5393)" stroke-width="1" stroke-linecap="round" stroke-linejoin="round" fill="none" stroke="#454545" d="M0 0V-9H13"/>
<path transform="matrix(.735422,0,0,.735422,485.83338,1324.5393)" stroke-width="1" stroke-linecap="round" stroke-linejoin="round" fill="none" stroke="#454545" d="M0 0V79H13"/>
<path transform="matrix(.735422,0,0,.735422,938.8534,297.15473)" stroke-width="1" stroke-linecap="round" stroke-linejoin="round" fill="none" stroke="#454545" d="M0 0H13V-159H27"/>
<path transform="matrix(.735422,0,0,.735422,948.4138,297.15473)" stroke-width="1" stroke-linecap="round" stroke-linejoin="round" fill="none" stroke="#454545" d="M0 0V-52H14"/>
<path transform="matrix(.735422,0,0,.735422,948.4138,297.15473)" stroke-width="1" stroke-linecap="round" stroke-linejoin="round" fill="none" stroke="#454545" d="M0 0V19H14"/>
<path transform="matrix(.735422,0,0,.735422,948.4138,297.15473)" stroke-width="1" stroke-linecap="round" stroke-linejoin="round" fill="none" stroke="#454545" d="M0 0V54H14"/>
<path transform="matrix(.735422,0,0,.735422,948.4138,297.15473)" stroke-width="1" stroke-linecap="round" stroke-linejoin="round" fill="none" stroke="#454545" d="M0 0V89H14"/>
<path transform="matrix(.735422,0,0,.735422,948.4138,297.15473)" stroke-width="1" stroke-linecap="round" stroke-linejoin="round" fill="none" stroke="#454545" d="M0 0V124H14"/>
<path transform="matrix(.735422,0,0,.735422,948.4138,297.15473)" stroke-width="1" stroke-linecap="round" stroke-linejoin="round" fill="none" stroke="#454545" d="M0 0V159H14"/>
<path transform="matrix(.735422,0,0,.735422,860.8987,483.9519)" stroke-width="1" stroke-linecap="round" stroke-linejoin="round" fill="none" stroke="#454545" d="M0 0H13V-47H27"/>
<path transform="matrix(.735422,0,0,.735422,870.4591,483.9519)" stroke-width="1" stroke-linecap="round" stroke-linejoin="round" fill="none" stroke="#454545" d="M0 0H14"/>
<path transform="matrix(.735422,0,0,.735422,870.4591,483.9519)" stroke-width="1" stroke-linecap="round" stroke-linejoin="round" fill="none" stroke="#454545" d="M0 0V47H14"/>
<path transform="matrix(.735422,0,0,.735422,885.90298,592.7943)" stroke-width="1" stroke-linecap="round" stroke-linejoin="round" fill="none" stroke="#454545" d="M0 0H14V-54H27"/>
<path transform="matrix(.735422,0,0,.735422,896.19888,592.7943)" stroke-width="1" stroke-linecap="round" stroke-linejoin="round" fill="none" stroke="#454545" d="M0 0V-6H13"/>
<path transform="matrix(.735422,0,0,.735422,896.19888,592.7943)" stroke-width="1" stroke-linecap="round" stroke-linejoin="round" fill="none" stroke="#454545" d="M0 0V53H13"/>
<path transform="matrix(.735422,0,0,.735422,703.5183,785.475)" stroke-width="1" stroke-linecap="round" stroke-linejoin="round" fill="none" stroke="#454545" d="M0 0H14V-135H27"/>
<path transform="matrix(.735422,0,0,.735422,713.8142,785.475)" stroke-width="1" stroke-linecap="round" stroke-linejoin="round" fill="none" stroke="#454545" d="M0 0V-65H13"/>
<path transform="matrix(.735422,0,0,.735422,713.8142,785.475)" stroke-width="1" stroke-linecap="round" stroke-linejoin="round" fill="none" stroke="#454545" d="M0 0V17H13"/>
<path transform="matrix(.735422,0,0,.735422,713.8142,785.475)" stroke-width="1" stroke-linecap="round" stroke-linejoin="round" fill="none" stroke="#454545" d="M0 0V64H13"/>
<path transform="matrix(.735422,0,0,.735422,713.8142,785.475)" stroke-width="1" stroke-linecap="round" stroke-linejoin="round" fill="none" stroke="#454545" d="M0 0V99H13"/>
<path transform="matrix(.735422,0,0,.735422,784.4148,1266.4409)" stroke-width="1" stroke-linecap="round" stroke-linejoin="round" fill="none" stroke="#454545" d="M0 0H14V-17H27"/>
<path transform="matrix(.735422,0,0,.735422,713.8142,785.475)" stroke-width="1" stroke-linecap="round" stroke-linejoin="round" fill="none" stroke="#454545" d="M0 0V134H13"/>
<path transform="matrix(.735422,0,0,.735422,735.87686,919.3218)" stroke-width="1" stroke-linecap="round" stroke-linejoin="round" fill="none" stroke="#454545" d="M0 0H14 27"/>
<path transform="matrix(.735422,0,0,.735422,703.5183,1085.5271)" stroke-width="1" stroke-linecap="round" stroke-linejoin="round" fill="none" stroke="#454545" d="M0 0H14V-155H27"/>
<path transform="matrix(.735422,0,0,.735422,713.8142,1085.5271)" stroke-width="1" stroke-linecap="round" stroke-linejoin="round" fill="none" stroke="#454545" d="M0 0V-83H13"/>
<path transform="matrix(.735422,0,0,.735422,713.8142,1085.5271)" stroke-width="1" stroke-linecap="round" stroke-linejoin="round" fill="none" stroke="#454545" d="M0 0V-23H13"/>
<path transform="matrix(.735422,0,0,.735422,713.8142,1085.5271)" stroke-width="1" stroke-linecap="round" stroke-linejoin="round" fill="none" stroke="#454545" d="M0 0V36H13"/>
<path transform="matrix(.735422,0,0,.735422,713.8142,1085.5271)" stroke-width="1" stroke-linecap="round" stroke-linejoin="round" fill="none" stroke="#454545" d="M0 0V96H13"/>
<path transform="matrix(.735422,0,0,.735422,713.8142,1085.5271)" stroke-width="1" stroke-linecap="round" stroke-linejoin="round" fill="none" stroke="#454545" d="M0 0V155H13"/>
<path transform="matrix(.735422,0,0,.735422,1102.1171,1199.5175)" stroke-width="1" stroke-linecap="round" stroke-linejoin="round" fill="none" stroke="#454545" d="M0 0H14 27"/>
<path transform="matrix(.735422,0,0,.735422,794.7107,1266.4409)" stroke-width="1" stroke-linecap="round" stroke-linejoin="round" fill="none" stroke="#454545" d="M0 0V18H13"/>
<path transform="matrix(.735422,0,0,.735422,752.05618,1317.9204)" stroke-width="1" stroke-linecap="round" stroke-linejoin="round" fill="none" stroke="#454545" d="M0 0H14V-17H27"/>
<path transform="matrix(.735422,0,0,.735422,762.35208,1317.9204)" stroke-width="1" stroke-linecap="round" stroke-linejoin="round" fill="none" stroke="#454545" d="M0 0V18H13"/>
<path transform="matrix(.735422,0,0,.735422,671.1598,1382.6376)" stroke-width="1" stroke-linecap="round" stroke-linejoin="round" fill="none" stroke="#454545" d="M0 0H14V-35H27"/>
<path transform="matrix(.735422,0,0,.735422,681.4557,1382.6376)" stroke-width="1" stroke-linecap="round" stroke-linejoin="round" fill="none" stroke="#454545" d="M0 0H13"/>
<path transform="matrix(.735422,0,0,.735422,681.4557,1382.6376)" stroke-width="1" stroke-linecap="round" stroke-linejoin="round" fill="none" stroke="#454545" d="M0 0V35H13"/>
<path transform="matrix(.06,0,0,.06,0,0)" d="M534.64 14415.022H3206.6749V15076.903H534.64Z" fill="#ffffff" fill-rule="evenodd"/>
<text xml:space="preserve" transform="matrix(1 0 -0 1 0 1448)" font-size="15.8111" font-family="SimSun"><tspan y="-557.3586" x="48.6254 64.8042 80.983 97.161808 113.34061 129.51941 145.69821 161.87702">&#x575a;&#x6301;&#x515a;&#x7684;&#x5168;&#x9762;&#x9886;&#x5bfc;</tspan></text>
<text xml:space="preserve" transform="matrix(1 0 -0 1 0 1448)" font-size="15.8111" font-family="SimSun"><tspan y="-557.3586" x="48.2577 64.4365 80.6153 96.794109 112.97291 129.1517 145.3305 161.50931">&#x575a;&#x6301;&#x515a;&#x7684;&#x5168;&#x9762;&#x9886;&#x5bfc;</tspan></text>
<path transform="matrix(.06,0,0,.06,0,0)" d="M20672.96 2403.123H25673.834V2746.32H20672.96Z" fill="#ffffff" fill-rule="evenodd"/>
<text fill="#303030" xml:space="preserve" transform="matrix(1 0 -0 1 0 1448)" font-size="15.8111" font-family="SimSun"><tspan y="-1287.6333" x="1248.0993 1264.2781 1280.4573 1296.6358 1312.8146 1328.9934 1345.1723 1361.3515 1377.5303 1393.7088 1409.8876 1426.0664 1442.2456 1458.4244 1474.6029 1490.7817">&#x4e2d;&#x56fd;&#x5171;&#x4ea7;&#x515a;&#x662f;&#x4e2d;&#x56fd;&#x5de5;&#x4eba;&#x9636;&#x7ea7;&#x7684;&#x5148;&#x950b;&#x961f;</tspan></text>
<text fill="#303030" xml:space="preserve" transform="matrix(1 0 -0 1 0 1448)" font-size="15.8111" font-family="SimSun"><tspan y="-1287.6333" x="1247.7317 1263.9105 1280.0894 1296.2682 1312.4474 1328.6262 1344.8047 1360.9835 1377.1624 1393.3412 1409.52 1425.6989 1441.8777 1458.0565 1474.2354 1490.4142">&#x4e2d;&#x56fd;&#x5171;&#x4ea7;&#x515a;&#x662f;&#x4e2d;&#x56fd;&#x5de5;&#x4eba;&#x9636;&#x7ea7;&#x7684;&#x5148;&#x950b;&#x961f;</tspan></text>
<path transform="matrix(.735422,0,0,.735422,564.52359,30.196534)" stroke-width="2" stroke-linecap="butt" stroke-linejoin="round" fill="none" stroke="#ffffff" d="M0 0H524C527 0 528 1 528 4V69C528 72 527 73 524 73H0C-3 73-4 72-4 69V4C-4 1-3 0 0 0Z"/>
<text xml:space="preserve" transform="matrix(1 0 -0 1 0 1448)" font-size="31.254502" font-family="Microsoft YaHei" font-weight="bold"><tspan y="-1379.1935" x="575.9233 803.89767">  </tspan></text>
<path transform="matrix(.06,0,0,.06,519.6635,84.618167)" d="M0 0H8788.305C8812.818 0 8837.328 24.514 8837.328 49.029V857.993C8837.328 882.507 8812.818 907.021 8788.305 907.021H0C-24.514 907.021-49.027 882.507-49.027 857.993V49.029C-49.027 24.514-24.514 0 0 0Z" fill="#ffffff" fill-rule="evenodd"/>
<path transform="matrix(.735422,0,0,.735422,519.66287,84.61774)" stroke-width="2" stroke-linecap="butt" stroke-linejoin="round" fill="none" stroke="#ffffff" d="M0 0H717C719 0 721 2 721 4V70C721 72 719 74 717 74H0C-2 74-4 72-4 70V4C-4 2-2 0 0 0Z"/>
<text xml:space="preserve" transform="matrix(1 0 -0 1 0 1448)" font-size="31.254502" font-family="Microsoft YaHei" font-weight="bold"><tspan y="-1324.4044" x="531.4302 562.6847 593.9392 625.1937 656.44827 665.6407 696.8952 728.1497 759.40426 768.59707 777.78958 809.04409 840.2986 871.5531 902.8076 934.06216 965.31668 996.57119">&#x6982;&#x8bba;&#x90e8;&#x5206; &#x7b2c;&#x4e09;&#x7ae0;  &#x575a;&#x6301;&#x515a;&#x7684;&#x5168;&#x9762;&#x9886;&#x5bfc;</tspan></text>
<path transform="matrix(.06,0,0,.06,0,0)" d="M20881.33 11693.961H23467.567V12037.157H20881.33Z" fill="#ffffff" fill-rule="evenodd"/>
<text fill="#303030" xml:space="preserve" transform="matrix(1 0 -0 1 0 1448)" font-size="15.8111" font-family="SimSun"><tspan y="-730.183" x="1260.234 1276.4129 1292.5913 1308.7702 1324.9494 1341.1278 1357.3067 1373.4855">&#x653f;&#x6cbb;&#x65b9;&#x5411;&#x7684;&#x5f15;&#x9886;&#x8005;</tspan></text>
<text fill="#303030" xml:space="preserve" transform="matrix(1 0 -0 1 0 1448)" font-size="15.8111" font-family="SimSun"><tspan y="-730.183" x="1259.8663 1276.0452 1292.224 1308.4032 1324.5817 1340.7605 1356.9393 1373.1178">&#x653f;&#x6cbb;&#x65b9;&#x5411;&#x7684;&#x5f15;&#x9886;&#x8005;</tspan></text>
<path transform="matrix(.06,0,0,.06,0,0)" d="M20672.96 2832.12H24681.012V3175.3172H20672.96Z" fill="#ffffff" fill-rule="evenodd"/>
<text xml:space="preserve" transform="matrix(1 0 -0 1 0 1448)" font-size="15.8111" font-family="SimSun"><tspan y="-1261.8936" x="1248.0993 1264.2781 1280.4573 1296.6358 1312.8146 1328.9934 1345.1723 1361.3515 1377.5303 1393.7088 1409.8876 1426.0664 1442.2456 1458.4244">&#x662f;&#x4e2d;&#x56fd;&#x4eba;&#x6c11;&#x548c;&#x4e2d;&#x534e;&#x6c11;&#x65cf;&#x7684;&#x5148;&#x950b;&#x961f;</tspan></text>
<text xml:space="preserve" transform="matrix(1 0 -0 1 0 1448)" font-size="15.8111" font-family="SimSun"><tspan y="-1261.8936" x="1247.7317 1263.9105 1280.0894 1296.2682 1312.4474 1328.6262 1344.8047 1360.9835 1377.1624 1393.3412 1409.52 1425.6989 1441.8777 1458.0565">&#x662f;&#x4e2d;&#x56fd;&#x4eba;&#x6c11;&#x548c;&#x4e2d;&#x534e;&#x6c11;&#x65cf;&#x7684;&#x5148;&#x950b;&#x961f;</tspan></text>
<path transform="matrix(.06,0,0,.06,0,0)" d="M20672.96 3261.117H25220.323V3604.314H20672.96Z" fill="#ffffff" fill-rule="evenodd"/>
<text xml:space="preserve" transform="matrix(1 0 -0 1 0 1448)" font-size="15.8111" font-family="SimSun"><tspan y="-1236.1539" x="1248.0993 1264.2781 1280.4573 1296.6358 1312.8146 1328.9934 1345.1723 1361.3515 1377.5303 1393.7088 1409.8876 1426.0664 1442.2456 1458.4244 1474.6029 1490.7817">&#x662f;&#x4e2d;&#x56fd;&#x7279;&#x8272;&#x793e;&#x4f1a;&#x4e3b;&#x4e49;&#x4e8b;&#x4e1a;&#x7684;&#x9886;&#x5bfc;&#x6838;&#x5fc3;</tspan></text>
<text xml:space="preserve" transform="matrix(1 0 -0 1 0 1448)" font-size="15.8111" font-family="SimSun"><tspan y="-1236.1539" x="1247.7317 1263.9105 1280.0894 1296.2682 1312.4474 1328.6262 1344.8047 1360.9835 1377.1624 1393.3412 1409.52 1425.6989 1441.8777 1458.0565 1474.2354 1490.4142">&#x662f;&#x4e2d;&#x56fd;&#x7279;&#x8272;&#x793e;&#x4f1a;&#x4e3b;&#x4e49;&#x4e8b;&#x4e1a;&#x7684;&#x9886;&#x5bfc;&#x6838;&#x5fc3;</tspan></text>
<path transform="matrix(.06,0,0,.06,0,0)" d="M20881.33 12551.954H23271.456V12895.15H20881.33Z" fill="#ffffff" fill-rule="evenodd"/>
<text fill="#303030" xml:space="preserve" transform="matrix(1 0 -0 1 0 1448)" font-size="15.8111" font-family="SimSun"><tspan y="-678.7034" x="1260.234 1276.4129 1292.5913 1308.7702 1324.9494 1341.1278 1357.3067 1373.4855">&#x91cd;&#x5927;&#x51b3;&#x7b56;&#x7684;&#x51b3;&#x65ad;&#x8005;</tspan></text>
<text fill="#303030" xml:space="preserve" transform="matrix(1 0 -0 1 0 1448)" font-size="15.8111" font-family="SimSun"><tspan y="-678.7034" x="1259.8663 1276.0452 1292.224 1308.4032 1324.5817 1340.7605 1356.9393 1373.1178">&#x91cd;&#x5927;&#x51b3;&#x7b56;&#x7684;&#x51b3;&#x65ad;&#x8005;</tspan></text>
<path transform="matrix(.06,0,0,.06,0,0)" d="M20881.33 12122.958H23271.456V12466.154H20881.33Z" fill="#ffffff" fill-rule="evenodd"/>
<text fill="#303030" xml:space="preserve" transform="matrix(1 0 -0 1 0 1448)" font-size="15.8111" font-family="SimSun"><tspan y="-704.4432" x="1260.234 1276.4129 1292.5913 1308.7702 1324.9494 1341.1278 1357.3067 1373.4855">&#x653f;&#x6cbb;&#x4f53;&#x7cfb;&#x7684;&#x7edf;&#x9886;&#x8005;</tspan></text>
<text fill="#303030" xml:space="preserve" transform="matrix(1 0 -0 1 0 1448)" font-size="15.8111" font-family="SimSun"><tspan y="-704.4432" x="1259.8663 1276.0452 1292.224 1308.4032 1324.5817 1340.7605 1356.9393 1373.1178">&#x653f;&#x6cbb;&#x4f53;&#x7cfb;&#x7684;&#x7edf;&#x9886;&#x8005;</tspan></text>
<path transform="matrix(.06,0,0,.06,0,0)" d="M3978.869 7183.368H10352.531V7649.136H3978.869Z" fill="#ffffff" fill-rule="evenodd"/>
<text fill="#303030" xml:space="preserve" transform="matrix(1 0 -0 1 0 1448)" font-size="15.8111" font-family="SimSun"><tspan y="-997.1413" x="253.0728 269.2516 285.4304 301.6092 317.788 333.9668 350.1456 366.3244 382.5032 398.682 414.8608 431.0396 447.2184 463.39723 479.57603 495.75483 511.93363 528.1124 544.2912 560.47 576.64877 592.8275">&#x4e2d;&#x56fd;&#x5171;&#x4ea7;&#x515a;&#x9886;&#x5bfc;&#x662f;&#x4e2d;&#x56fd;&#x7279;&#x8272;&#x793e;&#x4f1a;&#x4e3b;&#x4e49;&#x6700;&#x672c;&#x8d28;&#x7684;&#x7279;&#x5f81;</tspan></text>
<text fill="#303030" xml:space="preserve" transform="matrix(1 0 -0 1 0 1448)" font-size="15.8111" font-family="SimSun"><tspan y="-997.1413" x="252.7051 268.88389 285.06269 301.2415 317.4203 333.5991 349.7779 365.9567 382.1355 398.3143 414.4931 430.6719 446.8507 463.0295 479.2083 495.38713 511.56593 527.7447 543.92349 560.10189 576.28067 592.4594">&#x4e2d;&#x56fd;&#x5171;&#x4ea7;&#x515a;&#x9886;&#x5bfc;&#x662f;&#x4e2d;&#x56fd;&#x7279;&#x8272;&#x793e;&#x4f1a;&#x4e3b;&#x4e49;&#x6700;&#x672c;&#x8d28;&#x7684;&#x7279;&#x5f81;</tspan></text>
<path transform="matrix(.06,0,0,.06,0,0)" d="M3978.869 15358.814H7386.326V15824.582H3978.869Z" fill="#ffffff" fill-rule="evenodd"/>
<text fill="#303030" xml:space="preserve" transform="matrix(1 0 -0 1 0 1448)" font-size="15.8111" font-family="SimSun"><tspan y="-506.6146" x="253.0728 269.2516 285.4304 301.6092 317.788 333.9668 350.1456 366.3244 382.5032 398.682 414.8608">&#x575a;&#x6301;&#x515a;&#x5bf9;&#x4e00;&#x5207;&#x5de5;&#x4f5c;&#x7684;&#x9886;&#x5bfc;</tspan></text>
<text fill="#303030" xml:space="preserve" transform="matrix(1 0 -0 1 0 1448)" font-size="15.8111" font-family="SimSun"><tspan y="-506.6146" x="252.7051 268.88389 285.06269 301.2415 317.4203 333.5991 349.7779 365.9567 382.1355 398.3143 414.4931">&#x575a;&#x6301;&#x515a;&#x5bf9;&#x4e00;&#x5207;&#x5de5;&#x4f5c;&#x7684;&#x9886;&#x5bfc;</tspan></text>
<path transform="matrix(.06,0,0,.06,0,0)" d="M3978.869 21842.791H7925.6359V22308.56H3978.869Z" fill="#ffffff" fill-rule="evenodd"/>
<text fill="#303030" xml:space="preserve" transform="matrix(1 0 -0 1 0 1448)" font-size="15.8111" font-family="SimSun"><tspan y="-117.5761" x="253.0728 269.2516 285.4304 301.6092 317.788 333.9668 350.1456 366.3244 382.5032 398.682 414.8608 431.0396 447.2184">&#x5065;&#x5168;&#x548c;&#x5b8c;&#x5584;&#x515a;&#x7684;&#x9886;&#x5bfc;&#x5236;&#x5ea6;&#x4f53;&#x7cfb;</tspan></text>
<text fill="#303030" xml:space="preserve" transform="matrix(1 0 -0 1 0 1448)" font-size="15.8111" font-family="SimSun"><tspan y="-117.5761" x="252.7051 268.88389 285.06269 301.2415 317.4203 333.5991 349.7779 365.9567 382.1355 398.3143 414.4931 430.6719 446.8507">&#x5065;&#x5168;&#x548c;&#x5b8c;&#x5584;&#x515a;&#x7684;&#x9886;&#x5bfc;&#x5236;&#x5ea6;&#x4f53;&#x7cfb;</tspan></text>
<path transform="matrix(.06,0,0,.06,0,0)" d="M10683.474 4780.989H15647.576V5124.1857H10683.474Z" fill="#ffffff" fill-rule="evenodd"/>
<text fill="#303030" xml:space="preserve" transform="matrix(1 0 -0 1 0 1448)" font-size="15.8111" font-family="SimSun"><tspan y="-1144.9613" x="648.7302 664.909 681.08779 697.26657 713.4453 729.6241 745.80288 761.9816 778.1604 794.3392 810.51797 826.6967 842.8755 859.05429 875.23306 891.4118 907.5906 923.76937">&#x4e2d;&#x56fd;&#x6700;&#x5927;&#x7684;&#x56fd;&#x60c5;&#x5c31;&#x662f;&#x4e2d;&#x56fd;&#x5171;&#x4ea7;&#x515a;&#x7684;&#x9886;&#x5bfc; </tspan></text>
<text fill="#303030" xml:space="preserve" transform="matrix(1 0 -0 1 0 1448)" font-size="15.8111" font-family="SimSun"><tspan y="-1144.9613" x="648.3624 664.5412 680.72 696.89877 713.0775 729.2563 745.43508 761.61386 777.7926 793.9714 810.15017 826.32937 842.5081 858.6869 874.86569 891.04446 907.22366 923.4024">&#x4e2d;&#x56fd;&#x6700;&#x5927;&#x7684;&#x56fd;&#x60c5;&#x5c31;&#x662f;&#x4e2d;&#x56fd;&#x5171;&#x4ea7;&#x515a;&#x7684;&#x9886;&#x5bfc; </tspan></text>
<path transform="matrix(.06,0,0,.06,0,0)" d="M10683.474 7734.935H14348.328V8384.558H10683.474Z" fill="#ffffff" fill-rule="evenodd"/>
<text fill="#303030" xml:space="preserve" transform="matrix(1 0 -0 1 0 1448)" font-size="15.8111" font-family="SimSun"><tspan y="-967.3567" x="648.7302 664.909 681.08779 697.26657 713.4453 729.6241 745.80288 761.9816 778.1604 794.3392 810.51797 826.6967">&#x4e2d;&#x56fd;&#x5171;&#x4ea7;&#x515a;&#x9886;&#x5bfc;&#x662f;&#x4e2d;&#x56fd;&#x7279;&#x8272;</tspan></text>
<text fill="#303030" xml:space="preserve" transform="matrix(1 0 -0 1 0 1448)" font-size="15.8111" font-family="SimSun"><tspan y="-967.3567" x="648.3624 664.5412 680.72 696.89877 713.0775 729.2563 745.43508 761.61386 777.7926 793.9714 810.15017 826.32937">&#x4e2d;&#x56fd;&#x5171;&#x4ea7;&#x515a;&#x9886;&#x5bfc;&#x662f;&#x4e2d;&#x56fd;&#x7279;&#x8272;</tspan></text>
<text fill="#303030" xml:space="preserve" transform="matrix(1 0 -0 1 0 1448)" font-size="15.8111" font-family="SimSun"><tspan y="-949.339" x="648.7302 664.909 681.08779 697.26657 713.4453 729.6241 745.80288 761.9816 778.1604 794.3392 810.51797">&#x793e;&#x4f1a;&#x4e3b;&#x4e49;&#x5236;&#x5ea6;&#x7684;&#x6700;&#x5927;&#x4f18;&#x52bf;</tspan></text>
<text fill="#303030" xml:space="preserve" transform="matrix(1 0 -0 1 0 1448)" font-size="15.8111" font-family="SimSun"><tspan y="-949.339" x="648.3624 664.5412 680.72 696.89877 713.0775 729.2563 745.43508 761.61386 777.7926 793.9714 810.15017">&#x793e;&#x4f1a;&#x4e3b;&#x4e49;&#x5236;&#x5ea6;&#x7684;&#x6700;&#x5927;&#x4f18;&#x52bf;</tspan></text>
<path transform="matrix(.06,0,0,.06,0,0)" d="M10683.474 9548.981H14765.067V10198.604H10683.474Z" fill="#ffffff" fill-rule="evenodd"/>
<text fill="#303030" xml:space="preserve" transform="matrix(1 0 -0 1 0 1448)" font-size="15.8111" font-family="SimSun"><tspan y="-858.5142" x="648.7302 664.909 681.08779 697.26657 713.4453 729.6241 745.80288 761.9816 778.1604 794.3392 810.51797 826.6967 842.8755 859.05429">&#x52a0;&#x5f3a;&#x515a;&#x7684;&#x5168;&#x9762;&#x9886;&#x5bfc;&#x4e3a;&#x65b0;&#x65f6;&#x4ee3;&#x515a;&#x548c;</tspan></text>
<text fill="#303030" xml:space="preserve" transform="matrix(1 0 -0 1 0 1448)" font-size="15.8111" font-family="SimSun"><tspan y="-858.5142" x="648.3624 664.5412 680.72 696.89877 713.0775 729.2563 745.43508 761.61386 777.7926 793.9714 810.15017 826.32937 842.5081 858.6869">&#x52a0;&#x5f3a;&#x515a;&#x7684;&#x5168;&#x9762;&#x9886;&#x5bfc;&#x4e3a;&#x65b0;&#x65f6;&#x4ee3;&#x515a;&#x548c;</tspan></text>
<text fill="#303030" xml:space="preserve" transform="matrix(1 0 -0 1 0 1448)" font-size="15.8111" font-family="SimSun"><tspan y="-840.4964" x="648.7302 664.909 681.08779 697.26657 713.4453 729.6241 745.80288 761.9816 778.1604 794.3392 810.51797 826.6967 842.8755 859.05429">&#x56fd;&#x5bb6;&#x4e8b;&#x4e1a;&#x53d1;&#x5c55;&#x63d0;&#x4f9b;&#x4e86;&#x575a;&#x5f3a;&#x4fdd;&#x8bc1; </tspan></text>
<text fill="#303030" xml:space="preserve" transform="matrix(1 0 -0 1 0 1448)" font-size="15.8111" font-family="SimSun"><tspan y="-840.4964" x="648.3624 664.5412 680.72 696.89877 713.0775 729.2563 745.43508 761.61386 777.7926 793.9714 810.15017 826.32937 842.5081 858.6869">&#x56fd;&#x5bb6;&#x4e8b;&#x4e1a;&#x53d1;&#x5c55;&#x63d0;&#x4f9b;&#x4e86;&#x575a;&#x5f3a;&#x4fdd;&#x8bc1; </tspan></text>
<path transform="matrix(.06,0,0,.06,0,0)" d="M7717.267 12907.408H11725.319V13262.862H7717.267Z" fill="#ffffff" fill-rule="evenodd"/>
<text fill="#303030" xml:space="preserve" transform="matrix(1 0 -0 1 0 1448)" font-size="15.8111" font-family="SimSun"><tspan y="-657.0085" x="470.7578 486.9366 503.11543 519.2942 535.47299 551.65176 567.8305 584.0093 600.18807 616.3668 632.5456 648.72476 664.9035 681.0823">&#x4e2d;&#x56fd;&#x5171;&#x4ea7;&#x515a;&#x662f;&#x6700;&#x9ad8;&#x653f;&#x6cbb;&#x9886;&#x5bfc;&#x529b;&#x91cf;</tspan></text>
<text fill="#303030" xml:space="preserve" transform="matrix(1 0 -0 1 0 1448)" font-size="15.8111" font-family="SimSun"><tspan y="-657.0085" x="470.3901 486.5689 502.7477 518.9265 535.1053 551.28408 567.4628 583.6416 599.8204 615.99917 632.1779 648.3567 664.53549 680.71426">&#x4e2d;&#x56fd;&#x5171;&#x4ea7;&#x515a;&#x662f;&#x6700;&#x9ad8;&#x653f;&#x6cbb;&#x9886;&#x5bfc;&#x529b;&#x91cf;</tspan></text>
<path transform="matrix(.06,0,0,.06,0,0)" d="M7717.267 15138.189H12264.628V15493.644H7717.267Z" fill="#ffffff" fill-rule="evenodd"/>
<text fill="#303030" xml:space="preserve" transform="matrix(1 0 -0 1 0 1448)" font-size="15.8111" font-family="SimSun"><tspan y="-523.1615" x="470.7578 486.9366 503.11543 519.2942 535.47299 551.65176 567.8305 584.0093 600.18807 616.3668 632.5456 648.72476 664.9035 681.0823 697.26107 713.4398">&#x515a;&#x7684;&#x9886;&#x5bfc;&#x662f;&#x5168;&#x9762;&#x7684;&#x3001;&#x7cfb;&#x7edf;&#x7684;&#x3001;&#x6574;&#x4f53;&#x7684;</tspan></text>
<text fill="#303030" xml:space="preserve" transform="matrix(1 0 -0 1 0 1448)" font-size="15.8111" font-family="SimSun"><tspan y="-523.1615" x="470.3901 486.5689 502.7477 518.9265 535.1053 551.28408 567.4628 583.6416 599.8204 615.99917 632.1779 648.3567 664.53549 680.71426 696.893 713.0718">&#x515a;&#x7684;&#x9886;&#x5bfc;&#x662f;&#x5168;&#x9762;&#x7684;&#x3001;&#x7cfb;&#x7edf;&#x7684;&#x3001;&#x6574;&#x4f53;&#x7684;</tspan></text>
<path transform="matrix(.06,0,0,.06,0,0)" d="M7717.267 17920.538H11725.319V18263.735H7717.267Z" fill="#ffffff" fill-rule="evenodd"/>
<text fill="#303030" xml:space="preserve" transform="matrix(1 0 -0 1 0 1448)" font-size="15.8111" font-family="SimSun"><tspan y="-356.2207" x="470.7578 486.9366 503.11543 519.2942 535.47299 551.65176 567.8305 584.0093 600.18807 616.3668 632.5456 648.72476 664.9035 681.0823">&#x7ef4;&#x62a4;&#x515a;&#x4e2d;&#x592e;&#x6743;&#x5a01;&#x548c;&#x96c6;&#x4e2d;&#x7edf;&#x4e00;&#x9886;&#x5bfc;</tspan></text>
<text fill="#303030" xml:space="preserve" transform="matrix(1 0 -0 1 0 1448)" font-size="15.8111" font-family="SimSun"><tspan y="-356.2207" x="470.3901 486.5689 502.7477 518.9265 535.1053 551.28408 567.4628 583.6416 599.8204 615.99917 632.1779 648.3567 664.53549 680.71426">&#x7ef4;&#x62a4;&#x515a;&#x4e2d;&#x592e;&#x6743;&#x5a01;&#x548c;&#x96c6;&#x4e2d;&#x7edf;&#x4e00;&#x9886;&#x5bfc;</tspan></text>
<path transform="matrix(.06,0,0,.06,0,0)" d="M8256.576 20935.77H13073.594V21291.225H8256.576Z" fill="#ffffff" fill-rule="evenodd"/>
<text fill="#303030" xml:space="preserve" transform="matrix(1 0 -0 1 0 1448)" font-size="15.8111" font-family="SimSun"><tspan y="-175.3068" x="503.1165 519.2953 535.47409 551.65286 567.8316 584.0104 600.18917 616.3679 632.5467 648.72549 664.90426 681.083 697.2618 713.44058 729.6193 745.7981 761.97689">&#x515a;&#x7684;&#x9886;&#x5bfc;&#x5236;&#x5ea6;&#x662f;&#x6211;&#x56fd;&#x7684;&#x6839;&#x672c;&#x9886;&#x5bfc;&#x5236;&#x5ea6;&#x529b;</tspan></text>
<text fill="#303030" xml:space="preserve" transform="matrix(1 0 -0 1 0 1448)" font-size="15.8111" font-family="SimSun"><tspan y="-175.3068" x="502.7487 518.9275 535.10629 551.28506 567.4638 583.6426 599.82138 616.0001 632.1789 648.35769 664.53646 680.7152 696.894 713.07278 729.2515 745.4303 761.6091">&#x515a;&#x7684;&#x9886;&#x5bfc;&#x5236;&#x5ea6;&#x662f;&#x6211;&#x56fd;&#x7684;&#x6839;&#x672c;&#x9886;&#x5bfc;&#x5236;&#x5ea6;&#x529b;</tspan></text>
<path transform="matrix(.06,0,0,.06,0,0)" d="M8256.576 21793.764H12534.284V22149.217H8256.576Z" fill="#ffffff" fill-rule="evenodd"/>
<text fill="#303030" xml:space="preserve" transform="matrix(1 0 -0 1 0 1448)" font-size="15.8111" font-family="SimSun"><tspan y="-123.8272" x="503.1165 519.2953 535.47409 551.65286 567.8316 584.0104 600.18917 616.3679 632.5467 648.72549 664.90426 681.083 697.2618 713.44058 729.6193">&#x5065;&#x5168;&#x515a;&#x4e2d;&#x592e;&#x5bf9;&#x91cd;&#x5927;&#x5de5;&#x4f5c;&#x7684;&#x9886;&#x5bfc;&#x4f53;&#x5236;</tspan></text>
<text fill="#303030" xml:space="preserve" transform="matrix(1 0 -0 1 0 1448)" font-size="15.8111" font-family="SimSun"><tspan y="-123.8272" x="502.7487 518.9275 535.10629 551.28506 567.4638 583.6426 599.82138 616.0001 632.1789 648.35769 664.53646 680.7152 696.894 713.07278 729.2515">&#x5065;&#x5168;&#x515a;&#x4e2d;&#x592e;&#x5bf9;&#x91cd;&#x5927;&#x5de5;&#x4f5c;&#x7684;&#x9886;&#x5bfc;&#x4f53;&#x5236;</tspan></text>
<path transform="matrix(.06,0,0,.06,0,0)" d="M8256.576 22872.385H11186.01V23215.58H8256.576Z" fill="#ffffff" fill-rule="evenodd"/>
<text fill="#303030" xml:space="preserve" transform="matrix(1 0 -0 1 0 1448)" font-size="15.8111" font-family="SimSun"><tspan y="-59.4777" x="503.1165 519.2953 535.47409 551.65286 567.8316 584.0104 600.18917 616.3679 632.5467 648.72549">&#x5065;&#x5168;&#x515a;&#x7684;&#x5168;&#x9762;&#x9886;&#x5bfc;&#x5236;&#x5ea6;</tspan></text>
<text fill="#303030" xml:space="preserve" transform="matrix(1 0 -0 1 0 1448)" font-size="15.8111" font-family="SimSun"><tspan y="-59.4777" x="502.7487 518.9275 535.10629 551.28506 567.4638 583.6426 599.82138 616.0001 632.1789 648.35769">&#x5065;&#x5168;&#x515a;&#x7684;&#x5168;&#x9762;&#x9886;&#x5bfc;&#x5236;&#x5ea6;</tspan></text>
<path transform="matrix(.06,0,0,.06,0,0)" d="M15978.513 2672.778H20342.02V3322.4012H15978.513Z" fill="#ffffff" fill-rule="evenodd"/>
<text fill="#303030" xml:space="preserve" transform="matrix(1 0 -0 1 0 1448)" font-size="15.8111" font-family="SimSun"><tspan y="-1271.0862" x="966.0649 982.24368 998.4224 1014.6012 1030.78 1046.9592 1063.1381 1079.3169 1095.4957 1111.6746 1127.8534 1144.0322 1160.2107 1176.3899 1192.5687">&#x575a;&#x6301;&#x515a;&#x7684;&#x5168;&#x9762;&#x9886;&#x5bfc;&#x662f;&#x575a;&#x6301;&#x548c;&#x53d1;&#x5c55;&#x4e2d;</tspan></text>
<text fill="#303030" xml:space="preserve" transform="matrix(1 0 -0 1 0 1448)" font-size="15.8111" font-family="SimSun"><tspan y="-1271.0862" x="965.6972 981.876 998.05477 1014.2339 1030.4127 1046.5916 1062.77 1078.9492 1095.128 1111.3069 1127.4857 1143.6646 1159.8438 1176.0226 1192.201">&#x575a;&#x6301;&#x515a;&#x7684;&#x5168;&#x9762;&#x9886;&#x5bfc;&#x662f;&#x575a;&#x6301;&#x548c;&#x53d1;&#x5c55;&#x4e2d;</tspan></text>
<text fill="#303030" xml:space="preserve" transform="matrix(1 0 -0 1 0 1448)" font-size="15.8111" font-family="SimSun"><tspan y="-1253.0687" x="966.0649 982.24368 998.4224 1014.6012 1030.78 1046.9592 1063.1381 1079.3169 1095.4957 1111.6746 1127.8534 1144.0322">&#x56fd;&#x7279;&#x8272;&#x793e;&#x4f1a;&#x4e3b;&#x4e49;&#x7684;&#x5fc5;&#x7531;&#x4e4b;&#x8def;</tspan></text>
<text fill="#303030" xml:space="preserve" transform="matrix(1 0 -0 1 0 1448)" font-size="15.8111" font-family="SimSun"><tspan y="-1253.0687" x="965.6972 981.876 998.05477 1014.2339 1030.4127 1046.5916 1062.77 1078.9492 1095.128 1111.3069 1127.4857 1143.6646">&#x56fd;&#x7279;&#x8272;&#x793e;&#x4f1a;&#x4e3b;&#x4e49;&#x7684;&#x5fc5;&#x7531;&#x4e4b;&#x8def;</tspan></text>
<path transform="matrix(.06,0,0,.06,0,0)" d="M15978.513 3690.113H22290.89V4940.331H15978.513Z" fill="#ffffff" fill-rule="evenodd"/>
<text fill="#303030" xml:space="preserve" transform="matrix(1 0 -0 1 0 1448)" font-size="15.8111" font-family="SimSun"><tspan y="-1210.414" x="966.0649 982.24368 998.4224 1014.6012 1030.78 1046.9592 1063.1381 1079.3169 1095.4957 1111.6746 1127.8534 1144.0322 1160.2107 1176.3899 1192.5687 1208.7476 1224.9264 1241.1049 1257.2837 1273.4625 1289.6414 1305.8206">&#x4e2d;&#x56fd;&#x7279;&#x8272;&#x793e;&#x4f1a;&#x4e3b;&#x4e49;&#x6700;&#x672c;&#x8d28;&#x7684;&#x7279;&#x5f81;&#x662f;&#x4e2d;&#x56fd;&#x5171;&#x4ea7;&#x515a;&#x9886;&#x5bfc;</tspan></text>
<text fill="#303030" xml:space="preserve" transform="matrix(1 0 -0 1 0 1448)" font-size="15.8111" font-family="SimSun"><tspan y="-1210.414" x="965.6972 981.876 998.05477 1014.2339 1030.4127 1046.5916 1062.77 1078.9492 1095.128 1111.3069 1127.4857 1143.6646 1159.8438 1176.0226 1192.201 1208.3799 1224.5587 1240.7376 1256.9164 1273.0952 1289.274 1305.4529">&#x4e2d;&#x56fd;&#x7279;&#x8272;&#x793e;&#x4f1a;&#x4e3b;&#x4e49;&#x6700;&#x672c;&#x8d28;&#x7684;&#x7279;&#x5f81;&#x662f;&#x4e2d;&#x56fd;&#x5171;&#x4ea7;&#x515a;&#x9886;&#x5bfc;</tspan></text>
<text fill="#303030" xml:space="preserve" transform="matrix(1 0 -0 1 0 1448)" font-size="15.8111" font-family="SimSun"><tspan y="-1192.3961" x="966.0649 982.24368 998.4224 1014.6012 1030.78 1046.9592 1063.1381 1079.3169 1095.4957 1111.6746 1127.8534 1144.0322 1160.2107 1176.3899 1192.5687 1208.7476 1224.9264 1241.1049 1257.2837 1273.4625 1289.6414 1305.8206">&#xff0c;&#x4e2d;&#x56fd;&#x7279;&#x8272;&#x793e;&#x4f1a;&#x4e3b;&#x4e49;&#x5236;&#x5ea6;&#x7684;&#x6700;&#x5927;&#x4f18;&#x52bf;&#x662f;&#x4e2d;&#x56fd;&#x5171;&#x4ea7;&#x515a;</tspan></text>
<text fill="#303030" xml:space="preserve" transform="matrix(1 0 -0 1 0 1448)" font-size="15.8111" font-family="SimSun"><tspan y="-1192.3961" x="965.6972 981.876 998.05477 1014.2339 1030.4127 1046.5916 1062.77 1078.9492 1095.128 1111.3069 1127.4857 1143.6646 1159.8438 1176.0226 1192.201 1208.3799 1224.5587 1240.7376 1256.9164 1273.0952 1289.274 1305.4529">&#xff0c;&#x4e2d;&#x56fd;&#x7279;&#x8272;&#x793e;&#x4f1a;&#x4e3b;&#x4e49;&#x5236;&#x5ea6;&#x7684;&#x6700;&#x5927;&#x4f18;&#x52bf;&#x662f;&#x4e2d;&#x56fd;&#x5171;&#x4ea7;&#x515a;</tspan></text>
<text fill="#303030" xml:space="preserve" transform="matrix(1 0 -0 1 0 1448)" font-size="15.8111" font-family="SimSun"><tspan y="-1174.3784" x="966.0649 982.24368 998.4224 1014.6012 1030.78 1046.9592 1063.1381 1079.3169 1095.4957 1111.6746 1127.8534 1144.0322 1160.2107 1176.3899 1192.5687 1208.7476 1224.9264 1241.1049 1257.2837 1273.4625 1289.6414 1305.8206">&#x9886;&#x5bfc;&#xff0c;&#x4e2d;&#x56fd;&#x5171;&#x4ea7;&#x515a;&#x662f;&#x6700;&#x9ad8;&#x653f;&#x6cbb;&#x9886;&#x5bfc;&#x529b;&#x91cf;&#xff0c;&#x575a;&#x6301;&#x515a;&#x4e2d;</tspan></text>
<text fill="#303030" xml:space="preserve" transform="matrix(1 0 -0 1 0 1448)" font-size="15.8111" font-family="SimSun"><tspan y="-1174.3784" x="965.6972 981.876 998.05477 1014.2339 1030.4127 1046.5916 1062.77 1078.9492 1095.128 1111.3069 1127.4857 1143.6646 1159.8438 1176.0226 1192.201 1208.3799 1224.5587 1240.7376 1256.9164 1273.0952 1289.274 1305.4529">&#x9886;&#x5bfc;&#xff0c;&#x4e2d;&#x56fd;&#x5171;&#x4ea7;&#x515a;&#x662f;&#x6700;&#x9ad8;&#x653f;&#x6cbb;&#x9886;&#x5bfc;&#x529b;&#x91cf;&#xff0c;&#x575a;&#x6301;&#x515a;&#x4e2d;</tspan></text>
<text fill="#303030" xml:space="preserve" transform="matrix(1 0 -0 1 0 1448)" font-size="15.8111" font-family="SimSun"><tspan y="-1156.3604" x="966.0649 982.24368 998.4224 1014.6012 1030.78 1046.9592 1063.1381 1079.3169 1095.4957 1111.6746 1127.8534 1144.0322 1160.2107 1176.3899">&#x592e;&#x96c6;&#x4e2d;&#x7edf;&#x4e00;&#x9886;&#x5bfc;&#x662f;&#x6700;&#x9ad8;&#x653f;&#x6cbb;&#x539f;&#x5219;</tspan></text>
<text fill="#303030" xml:space="preserve" transform="matrix(1 0 -0 1 0 1448)" font-size="15.8111" font-family="SimSun"><tspan y="-1156.3604" x="965.6972 981.876 998.05477 1014.2339 1030.4127 1046.5916 1062.77 1078.9492 1095.128 1111.3069 1127.4857 1143.6646 1159.8438 1176.0226">&#x592e;&#x96c6;&#x4e2d;&#x7edf;&#x4e00;&#x9886;&#x5bfc;&#x662f;&#x6700;&#x9ad8;&#x653f;&#x6cbb;&#x539f;&#x5219;</tspan></text>
<path transform="matrix(.06,0,0,.06,0,0)" d="M15978.513 5013.872H22928.256V5369.327H15978.513Z" fill="#ffffff" fill-rule="evenodd"/>
<text fill="#303030" xml:space="preserve" transform="matrix(1 0 -0 1 0 1448)" font-size="15.8111" font-family="SimSun"><tspan y="-1130.6206" x="966.0649 982.24368 998.4224 1014.6012 1030.78 1046.9592 1063.1381 1079.3169 1095.4957 1111.6746 1127.8534 1144.0322 1160.2107 1176.3899 1192.5687 1208.7476 1224.9264 1241.1049 1257.2837 1273.4625 1289.6414 1305.8206 1321.999">&#x4e2d;&#x56fd;&#x5171;&#x4ea7;&#x515a;&#x662f;&#x4e2d;&#x56fd;&#x7279;&#x8272;&#x793e;&#x4f1a;&#x4e3b;&#x4e49;&#x4e8b;&#x4e1a;&#x7684;&#x575a;&#x5f3a;&#x9886;&#x5bfc;&#x6838;&#x5fc3;</tspan></text>
<text fill="#303030" xml:space="preserve" transform="matrix(1 0 -0 1 0 1448)" font-size="15.8111" font-family="SimSun"><tspan y="-1130.6206" x="965.6972 981.876 998.05477 1014.2339 1030.4127 1046.5916 1062.77 1078.9492 1095.128 1111.3069 1127.4857 1143.6646 1159.8438 1176.0226 1192.201 1208.3799 1224.5587 1240.7376 1256.9164 1273.0952 1289.274 1305.4529 1321.6317">&#x4e2d;&#x56fd;&#x5171;&#x4ea7;&#x515a;&#x662f;&#x4e2d;&#x56fd;&#x7279;&#x8272;&#x793e;&#x4f1a;&#x4e3b;&#x4e49;&#x4e8b;&#x4e1a;&#x7684;&#x575a;&#x5f3a;&#x9886;&#x5bfc;&#x6838;&#x5fc3;</tspan></text>
<path transform="matrix(.06,0,0,.06,0,0)" d="M15978.513 5442.868H21604.497V5798.323H15978.513Z" fill="#ffffff" fill-rule="evenodd"/>
<text fill="#303030" xml:space="preserve" transform="matrix(1 0 -0 1 0 1448)" font-size="15.8111" font-family="SimSun"><tspan y="-1104.8809" x="966.0649 982.24368 998.4224 1014.6012 1030.78 1046.9592 1063.1381 1079.3169 1095.4957 1111.6746 1127.8534 1144.0322 1160.2107 1176.3899 1192.5687 1208.7476 1224.9264 1241.1049 1257.2837 1273.4625">&#x4e2d;&#x56fd;&#x5171;&#x4ea7;&#x515a;&#x7684;&#x9886;&#x5bfc;&#x5730;&#x4f4d;&#x662f;&#x5728;&#x5386;&#x53f2;&#x594b;&#x6597;&#x4e2d;&#x5f62;&#x6210;&#x7684;</tspan></text>
<text fill="#303030" xml:space="preserve" transform="matrix(1 0 -0 1 0 1448)" font-size="15.8111" font-family="SimSun"><tspan y="-1104.8809" x="965.6972 981.876 998.05477 1014.2339 1030.4127 1046.5916 1062.77 1078.9492 1095.128 1111.3069 1127.4857 1143.6646 1159.8438 1176.0226 1192.201 1208.3799 1224.5587 1240.7376 1256.9164 1273.0952">&#x4e2d;&#x56fd;&#x5171;&#x4ea7;&#x515a;&#x7684;&#x9886;&#x5bfc;&#x5730;&#x4f4d;&#x662f;&#x5728;&#x5386;&#x53f2;&#x594b;&#x6597;&#x4e2d;&#x5f62;&#x6210;&#x7684;</tspan></text>
<path transform="matrix(.06,0,0,.06,0,0)" d="M15978.513 5871.865H21334.84V6227.3205H15978.513Z" fill="#ffffff" fill-rule="evenodd"/>
<text fill="#303030" xml:space="preserve" transform="matrix(1 0 -0 1 0 1448)" font-size="15.8111" font-family="SimSun"><tspan y="-1079.141" x="966.0649 982.24368 998.4224 1014.6012 1030.78 1046.9592 1063.1381 1079.3169 1095.4957 1111.6746 1127.8534 1144.0322 1160.2107 1176.3899 1192.5687 1208.7476 1224.9264 1241.1049 1257.2837">&#x4e2d;&#x56fd;&#x5171;&#x4ea7;&#x515a;&#x9886;&#x5bfc;&#x662f;&#x4eba;&#x6c11;&#x5f53;&#x5bb6;&#x4f5c;&#x4e3b;&#x7684;&#x53ef;&#x9760;&#x4fdd;&#x969c;</tspan></text>
<text fill="#303030" xml:space="preserve" transform="matrix(1 0 -0 1 0 1448)" font-size="15.8111" font-family="SimSun"><tspan y="-1079.141" x="965.6972 981.876 998.05477 1014.2339 1030.4127 1046.5916 1062.77 1078.9492 1095.128 1111.3069 1127.4857 1143.6646 1159.8438 1176.0226 1192.201 1208.3799 1224.5587 1240.7376 1256.9164">&#x4e2d;&#x56fd;&#x5171;&#x4ea7;&#x515a;&#x9886;&#x5bfc;&#x662f;&#x4eba;&#x6c11;&#x5f53;&#x5bb6;&#x4f5c;&#x4e3b;&#x7684;&#x53ef;&#x9760;&#x4fdd;&#x969c;</tspan></text>
<path transform="matrix(.06,0,0,.06,0,0)" d="M15978.513 6300.862H23492.08V6656.316H15978.513Z" fill="#ffffff" fill-rule="evenodd"/>
<text fill="#303030" xml:space="preserve" transform="matrix(1 0 -0 1 0 1448)" font-size="15.8111" font-family="SimSun"><tspan y="-1053.4013" x="966.0649 982.24368 998.4224 1014.6012 1030.78 1046.9592 1063.1381 1079.3169 1095.4957 1111.6746 1127.8534 1144.0322 1160.2107 1176.3899 1192.5687 1208.7476 1224.9264 1241.1049 1257.2837 1273.4625 1289.6414 1305.8206 1321.999 1338.1779 1354.3567 1370.5355">&#x4e2d;&#x56fd;&#x5171;&#x4ea7;&#x515a;&#x9886;&#x5bfc;&#x5173;&#x7cfb;&#x4e2d;&#x56fd;&#x7279;&#x8272;&#x793e;&#x4f1a;&#x4e3b;&#x4e49;&#x7684;&#x6027;&#x8d28;&#x3001;&#x65b9;&#x5411;&#x548c;&#x547d;&#x8fd0;</tspan></text>
<text fill="#303030" xml:space="preserve" transform="matrix(1 0 -0 1 0 1448)" font-size="15.8111" font-family="SimSun"><tspan y="-1053.4013" x="965.6972 981.876 998.05477 1014.2339 1030.4127 1046.5916 1062.77 1078.9492 1095.128 1111.3069 1127.4857 1143.6646 1159.8438 1176.0226 1192.201 1208.3799 1224.5587 1240.7376 1256.9164 1273.0952 1289.274 1305.4529 1321.6317 1337.8106 1353.9894 1370.1679">&#x4e2d;&#x56fd;&#x5171;&#x4ea7;&#x515a;&#x9886;&#x5bfc;&#x5173;&#x7cfb;&#x4e2d;&#x56fd;&#x7279;&#x8272;&#x793e;&#x4f1a;&#x4e3b;&#x4e49;&#x7684;&#x6027;&#x8d28;&#x3001;&#x65b9;&#x5411;&#x548c;&#x547d;&#x8fd0;</tspan></text>
<path transform="matrix(.06,0,0,.06,0,0)" d="M15978.513 6729.857H22817.942V7085.311H15978.513Z" fill="#ffffff" fill-rule="evenodd"/>
<text fill="#303030" xml:space="preserve" transform="matrix(1 0 -0 1 0 1448)" font-size="15.8111" font-family="SimSun"><tspan y="-1027.6615" x="966.0649 982.24368 998.4224 1014.6012 1030.78 1046.9592 1063.1381 1079.3169 1095.4957 1111.6746 1127.8534 1144.0322 1160.2107 1176.3899 1192.5687 1208.7476 1224.9264 1241.1049 1257.2837 1273.4625 1289.6414 1305.8206 1321.999">&#x4e2d;&#x56fd;&#x5171;&#x4ea7;&#x515a;&#x9886;&#x5bfc;&#x662f;&#x5b9e;&#x73b0;&#x4e2d;&#x534e;&#x6c11;&#x65cf;&#x4f1f;&#x5927;&#x590d;&#x5174;&#x7684;&#x6839;&#x672c;&#x4fdd;&#x8bc1;</tspan></text>
<text fill="#303030" xml:space="preserve" transform="matrix(1 0 -0 1 0 1448)" font-size="15.8111" font-family="SimSun"><tspan y="-1027.6615" x="965.6972 981.876 998.05477 1014.2339 1030.4127 1046.5916 1062.77 1078.9492 1095.128 1111.3069 1127.4857 1143.6646 1159.8438 1176.0226 1192.201 1208.3799 1224.5587 1240.7376 1256.9164 1273.0952 1289.274 1305.4529 1321.6317">&#x4e2d;&#x56fd;&#x5171;&#x4ea7;&#x515a;&#x9886;&#x5bfc;&#x662f;&#x5b9e;&#x73b0;&#x4e2d;&#x534e;&#x6c11;&#x65cf;&#x4f1f;&#x5927;&#x590d;&#x5174;&#x7684;&#x6839;&#x672c;&#x4fdd;&#x8bc1;</tspan></text>
<path transform="matrix(.06,0,0,.06,0,0)" d="M14679.266 7158.854H23884.307V7808.477H14679.266Z" fill="#ffffff" fill-rule="evenodd"/>
<text fill="#303030" xml:space="preserve" transform="matrix(1 0 -0 1 0 1448)" font-size="15.8111" font-family="SimSun"><tspan y="-1001.9217" x="888.1102 904.289 920.4678 936.64657 952.8253 969.0041 985.18289 1001.36166 1017.5404 1033.7192 1049.8981 1066.0765 1082.2554 1098.4342 1114.613 1130.7915 1146.9707 1163.1495 1179.3284 1195.5072 1211.6857 1227.8645 1244.0437 1260.2222 1276.401 1292.5795 1308.7583 1324.9375 1341.116 1357.2948 1373.4733 1389.6521 1405.8309">&#x4e2d;&#x56fd;&#x5171;&#x4ea7;&#x515a;&#x4ee5;&#x9a6c;&#x514b;&#x601d;&#x4e3b;&#x4e49;&#x4f5c;&#x4e3a;&#x884c;&#x52a8;&#x6307;&#x5357;&#xff0c;&#x5728;&#x5b9e;&#x8df5;&#x4e2d;&#x4e0d;&#x65ad;&#x63a8;&#x8fdb;&#x9a6c;&#x514b;&#x601d;&#x4e3b;&#x4e49;&#x4e2d;&#x56fd;</tspan></text>
<text fill="#303030" xml:space="preserve" transform="matrix(1 0 -0 1 0 1448)" font-size="15.8111" font-family="SimSun"><tspan y="-1001.9217" x="887.7425 903.92129 920.10006 936.2788 952.4576 968.63638 984.8151 1000.99429 1017.17269 1033.3518 1049.5303 1065.7091 1081.888 1098.0668 1114.2453 1130.4244 1146.6033 1162.7817 1178.9609 1195.1394 1211.3182 1227.4971 1243.6759 1259.8547 1276.0336 1292.2124 1308.3916 1324.5701 1340.7489 1356.9277 1373.1066 1389.2854 1405.4642">&#x4e2d;&#x56fd;&#x5171;&#x4ea7;&#x515a;&#x4ee5;&#x9a6c;&#x514b;&#x601d;&#x4e3b;&#x4e49;&#x4f5c;&#x4e3a;&#x884c;&#x52a8;&#x6307;&#x5357;&#xff0c;&#x5728;&#x5b9e;&#x8df5;&#x4e2d;&#x4e0d;&#x65ad;&#x63a8;&#x8fdb;&#x9a6c;&#x514b;&#x601d;&#x4e3b;&#x4e49;&#x4e2d;&#x56fd;</tspan></text>
<text fill="#303030" xml:space="preserve" transform="matrix(1 0 -0 1 0 1448)" font-size="15.8111" font-family="SimSun"><tspan y="-983.9039" x="888.1102 904.289 920.4678 936.64657 952.8253 969.0041 985.18289 1001.36166 1017.5404 1033.7192 1049.8981 1066.0765 1082.2554 1098.4342 1114.613 1130.7915 1146.9707 1163.1495 1179.3284 1195.5072 1211.6857 1227.8645 1244.0437 1260.2222 1276.401 1292.5795 1308.7583 1324.9375 1341.116">&#x5316;&#x65f6;&#x4ee3;&#x5316;&#xff0c;&#x4e3a;&#x575a;&#x6301;&#x548c;&#x5b8c;&#x5584;&#x4e2d;&#x56fd;&#x7279;&#x8272;&#x793e;&#x4f1a;&#x4e3b;&#x4e49;&#x5236;&#x5ea6;&#x63d0;&#x4f9b;&#x5f3a;&#x5927;&#x7406;&#x8bba;&#x4f18;&#x52bf;</tspan></text>
<text fill="#303030" xml:space="preserve" transform="matrix(1 0 -0 1 0 1448)" font-size="15.8111" font-family="SimSun"><tspan y="-983.9039" x="887.7425 903.92129 920.10006 936.2788 952.4576 968.63638 984.8151 1000.99429 1017.17269 1033.3518 1049.5303 1065.7091 1081.888 1098.0668 1114.2453 1130.4244 1146.6033 1162.7817 1178.9609 1195.1394 1211.3182 1227.4971 1243.6759 1259.8547 1276.0336 1292.2124 1308.3916 1324.5701 1340.7489">&#x5316;&#x65f6;&#x4ee3;&#x5316;&#xff0c;&#x4e3a;&#x575a;&#x6301;&#x548c;&#x5b8c;&#x5584;&#x4e2d;&#x56fd;&#x7279;&#x8272;&#x793e;&#x4f1a;&#x4e3b;&#x4e49;&#x5236;&#x5ea6;&#x63d0;&#x4f9b;&#x5f3a;&#x5927;&#x7406;&#x8bba;&#x4f18;&#x52bf;</tspan></text>
<path transform="matrix(.06,0,0,.06,0,0)" d="M14679.266 7894.278H23014.057V8237.476H14679.266Z" fill="#ffffff" fill-rule="evenodd"/>
<text fill="#303030" xml:space="preserve" transform="matrix(1 0 -0 1 0 1448)" font-size="15.8111" font-family="SimSun"><tspan y="-958.164" x="888.1102 904.289 920.4678 936.64657 952.8253 969.0041 985.18289 1001.36166 1017.5404 1033.7192 1049.8981 1066.0765 1082.2554 1098.4342 1114.613 1130.7915 1146.9707 1163.1495 1179.3284 1195.5072 1211.6857 1227.8645 1244.0437 1260.2222 1276.401 1292.5795 1308.7583 1324.9375">&#x4e2d;&#x56fd;&#x5171;&#x4ea7;&#x515a;&#x7684;&#x81ea;&#x8eab;&#x4f18;&#x52bf;&#x662f;&#x4e2d;&#x56fd;&#x7279;&#x8272;&#x793e;&#x4f1a;&#x4e3b;&#x4e49;&#x5236;&#x5ea6;&#x4f18;&#x52bf;&#x7684;&#x4e3b;&#x8981;&#x6765;&#x6e90;</tspan></text>
<text fill="#303030" xml:space="preserve" transform="matrix(1 0 -0 1 0 1448)" font-size="15.8111" font-family="SimSun"><tspan y="-958.164" x="887.7425 903.92129 920.10006 936.2788 952.4576 968.63638 984.8151 1000.99429 1017.17269 1033.3518 1049.5303 1065.7091 1081.888 1098.0668 1114.2453 1130.4244 1146.6033 1162.7817 1178.9609 1195.1394 1211.3182 1227.4971 1243.6759 1259.8547 1276.0336 1292.2124 1308.3916 1324.5701">&#x4e2d;&#x56fd;&#x5171;&#x4ea7;&#x515a;&#x7684;&#x81ea;&#x8eab;&#x4f18;&#x52bf;&#x662f;&#x4e2d;&#x56fd;&#x7279;&#x8272;&#x793e;&#x4f1a;&#x4e3b;&#x4e49;&#x5236;&#x5ea6;&#x4f18;&#x52bf;&#x7684;&#x4e3b;&#x8981;&#x6765;&#x6e90;</tspan></text>
<path transform="matrix(.06,0,0,.06,0,0)" d="M14679.266 8323.275H24301.043V8972.897H14679.266Z" fill="#ffffff" fill-rule="evenodd"/>
<text fill="#303030" xml:space="preserve" transform="matrix(1 0 -0 1 0 1448)" font-size="15.8111" font-family="SimSun"><tspan y="-932.4244" x="888.1102 904.289 920.4678 936.64657 952.8253 969.0041 985.18289 1001.36166 1017.5404 1033.7192 1049.8981 1066.0765 1082.2554 1098.4342 1114.613 1130.7915 1146.9707 1163.1495 1179.3284 1195.5072 1211.6857 1227.8645 1244.0437 1260.2222 1276.401 1292.5795 1308.7583 1324.9375 1341.116 1357.2948 1373.4733 1389.6521 1405.8309 1422.0098">&#x4e2d;&#x56fd;&#x5171;&#x4ea7;&#x515a;&#x80fd;&#x591f;&#x96c6;&#x4e2d;&#x5168;&#x515a;&#x5168;&#x56fd;&#x529b;&#x91cf;&#x3001;&#x51dd;&#x805a;&#x5168;&#x6c11;&#x65cf;&#x5171;&#x540c;&#x610f;&#x5fd7;&#xff0c;&#x5728;&#x5404;&#x9879;&#x4e8b;&#x4e1a;&#x4e2d;&#x53d1;&#x6325;</tspan></text>
<text fill="#303030" xml:space="preserve" transform="matrix(1 0 -0 1 0 1448)" font-size="15.8111" font-family="SimSun"><tspan y="-932.4244" x="887.7425 903.92129 920.10006 936.2788 952.4576 968.63638 984.8151 1000.99429 1017.17269 1033.3518 1049.5303 1065.7091 1081.888 1098.0668 1114.2453 1130.4244 1146.6033 1162.7817 1178.9609 1195.1394 1211.3182 1227.4971 1243.6759 1259.8547 1276.0336 1292.2124 1308.3916 1324.5701 1340.7489 1356.9277 1373.1066 1389.2854 1405.4642 1421.6431">&#x4e2d;&#x56fd;&#x5171;&#x4ea7;&#x515a;&#x80fd;&#x591f;&#x96c6;&#x4e2d;&#x5168;&#x515a;&#x5168;&#x56fd;&#x529b;&#x91cf;&#x3001;&#x51dd;&#x805a;&#x5168;&#x6c11;&#x65cf;&#x5171;&#x540c;&#x610f;&#x5fd7;&#xff0c;&#x5728;&#x5404;&#x9879;&#x4e8b;&#x4e1a;&#x4e2d;&#x53d1;&#x6325;</tspan></text>
<text fill="#303030" xml:space="preserve" transform="matrix(1 0 -0 1 0 1448)" font-size="15.8111" font-family="SimSun"><tspan y="-914.4065" x="888.1102 904.289 920.4678 936.64657 952.8253 969.0041 985.18289 1001.36166 1017.5404 1033.7192 1049.8981 1066.0765 1082.2554 1098.4342 1114.613 1130.7915 1146.9707 1163.1495 1179.3284 1195.5072 1211.6857 1227.8645 1244.0437 1260.2222 1276.401 1292.5795 1308.7583 1324.9375 1341.116 1357.2948 1373.4733 1389.6521 1405.8309 1422.0098">&#x603b;&#x63fd;&#x5168;&#x5c40;&#x3001;&#x534f;&#x8c03;&#x5404;&#x65b9;&#x7684;&#x4f5c;&#x7528;&#xff0c;&#x786e;&#x4fdd;&#x4e2d;&#x56fd;&#x7279;&#x8272;&#x793e;&#x4f1a;&#x4e3b;&#x4e49;&#x5236;&#x5ea6;&#x7684;&#x663e;&#x8457;&#x4f18;&#x52bf;&#x5145;&#x5206;&#x5f70;&#x663e;</tspan></text>
<text fill="#303030" xml:space="preserve" transform="matrix(1 0 -0 1 0 1448)" font-size="15.8111" font-family="SimSun"><tspan y="-914.4065" x="887.7425 903.92129 920.10006 936.2788 952.4576 968.63638 984.8151 1000.99429 1017.17269 1033.3518 1049.5303 1065.7091 1081.888 1098.0668 1114.2453 1130.4244 1146.6033 1162.7817 1178.9609 1195.1394 1211.3182 1227.4971 1243.6759 1259.8547 1276.0336 1292.2124 1308.3916 1324.5701 1340.7489 1356.9277 1373.1066 1389.2854 1405.4642 1421.6431">&#x603b;&#x63fd;&#x5168;&#x5c40;&#x3001;&#x534f;&#x8c03;&#x5404;&#x65b9;&#x7684;&#x4f5c;&#x7528;&#xff0c;&#x786e;&#x4fdd;&#x4e2d;&#x56fd;&#x7279;&#x8272;&#x793e;&#x4f1a;&#x4e3b;&#x4e49;&#x5236;&#x5ea6;&#x7684;&#x663e;&#x8457;&#x4f18;&#x52bf;&#x5145;&#x5206;&#x5f70;&#x663e;</tspan></text>
<path transform="matrix(.06,0,0,.06,0,0)" d="M15096.006 9046.44H22388.946V9401.894H15096.006Z" fill="#ffffff" fill-rule="evenodd"/>
<text fill="#303030" xml:space="preserve" transform="matrix(1 0 -0 1 0 1448)" font-size="15.8111" font-family="SimSun"><tspan y="-888.6664" x="913.4822 929.66098 945.8397 962.0189 978.1977 994.37649 1010.55526 1026.734 1042.9129 1059.0917 1075.2702 1091.4494 1107.6282 1123.807 1139.9855 1156.1643 1172.3435 1188.5223 1204.7012 1220.88 1237.0588 1253.2373 1269.4165 1285.5953 1301.7742">&#x575a;&#x6301;&#x548c;&#x52a0;&#x5f3a;&#x515a;&#x7684;&#x5168;&#x9762;&#x9886;&#x5bfc;&#xff0c;&#x4f7f;&#x515a;&#x7684;&#x9886;&#x5bfc;&#x6838;&#x5fc3;&#x4f5c;&#x7528;&#x5145;&#x5206;&#x5f70;&#x663e;</tspan></text>
<text fill="#303030" xml:space="preserve" transform="matrix(1 0 -0 1 0 1448)" font-size="15.8111" font-family="SimSun"><tspan y="-888.6664" x="913.1146 929.2934 945.47219 961.65097 977.8297 994.0085 1010.18728 1026.3665 1042.5449 1058.7238 1074.9026 1091.0814 1107.2603 1123.4391 1139.6179 1155.7968 1171.9756 1188.1544 1204.3333 1220.5121 1236.6906 1252.8698 1269.049 1285.2274 1301.4063">&#x575a;&#x6301;&#x548c;&#x52a0;&#x5f3a;&#x515a;&#x7684;&#x5168;&#x9762;&#x9886;&#x5bfc;&#xff0c;&#x4f7f;&#x515a;&#x7684;&#x9886;&#x5bfc;&#x6838;&#x5fc3;&#x4f5c;&#x7528;&#x5145;&#x5206;&#x5f70;&#x663e;</tspan></text>
<path transform="matrix(.06,0,0,.06,0,0)" d="M15096.006 9475.439H22903.74V10125.062H15096.006Z" fill="#ffffff" fill-rule="evenodd"/>
<text fill="#303030" xml:space="preserve" transform="matrix(1 0 -0 1 0 1448)" font-size="15.8111" font-family="SimSun"><tspan y="-862.9268" x="913.4822 929.66098 945.8397 962.0189 978.1977 994.37649 1010.55526 1026.734 1042.9129 1059.0917 1075.2702 1091.4494 1107.6282 1123.807 1139.9855 1156.1643 1172.3435 1188.5223 1204.7012 1220.88 1237.0588 1253.2373 1269.4165 1285.5953 1301.7742 1317.9534 1334.1318 1350.3107">&#x575a;&#x6301;&#x548c;&#x52a0;&#x5f3a;&#x515a;&#x7684;&#x5168;&#x9762;&#x9886;&#x5bfc;&#xff0c;&#x4f7f;&#x515a;&#x7684;&#x653f;&#x6cbb;&#x9886;&#x5bfc;&#x529b;&#x3001;&#x601d;&#x60f3;&#x5f15;&#x9886;&#x529b;&#x3001;&#x7fa4;</tspan></text>
<text fill="#303030" xml:space="preserve" transform="matrix(1 0 -0 1 0 1448)" font-size="15.8111" font-family="SimSun"><tspan y="-862.9268" x="913.1146 929.2934 945.47219 961.65097 977.8297 994.0085 1010.18728 1026.3665 1042.5449 1058.7238 1074.9026 1091.0814 1107.2603 1123.4391 1139.6179 1155.7968 1171.9756 1188.1544 1204.3333 1220.5121 1236.6906 1252.8698 1269.049 1285.2274 1301.4063 1317.5851 1333.7639 1349.9431">&#x575a;&#x6301;&#x548c;&#x52a0;&#x5f3a;&#x515a;&#x7684;&#x5168;&#x9762;&#x9886;&#x5bfc;&#xff0c;&#x4f7f;&#x515a;&#x7684;&#x653f;&#x6cbb;&#x9886;&#x5bfc;&#x529b;&#x3001;&#x601d;&#x60f3;&#x5f15;&#x9886;&#x529b;&#x3001;&#x7fa4;</tspan></text>
<text fill="#303030" xml:space="preserve" transform="matrix(1 0 -0 1 0 1448)" font-size="15.8111" font-family="SimSun"><tspan y="-844.9089" x="913.4822 929.66098 945.8397 962.0189 978.1977 994.37649 1010.55526 1026.734 1042.9129 1059.0917 1075.2702 1091.4494 1107.6282 1123.807">&#x4f17;&#x7ec4;&#x7ec7;&#x529b;&#x3001;&#x793e;&#x4f1a;&#x53f7;&#x53ec;&#x529b;&#x663e;&#x8457;&#x589e;&#x5f3a;</tspan></text>
<text fill="#303030" xml:space="preserve" transform="matrix(1 0 -0 1 0 1448)" font-size="15.8111" font-family="SimSun"><tspan y="-844.9089" x="913.1146 929.2934 945.47219 961.65097 977.8297 994.0085 1010.18728 1026.3665 1042.5449 1058.7238 1074.9026 1091.0814 1107.2603 1123.4391">&#x4f17;&#x7ec4;&#x7ec7;&#x529b;&#x3001;&#x793e;&#x4f1a;&#x53f7;&#x53ec;&#x529b;&#x663e;&#x8457;&#x589e;&#x5f3a;</tspan></text>
<path transform="matrix(.06,0,0,.06,0,0)" d="M15096.006 10210.856H23308.223V10860.48H15096.006Z" fill="#ffffff" fill-rule="evenodd"/>
<text fill="#303030" xml:space="preserve" transform="matrix(1 0 -0 1 0 1448)" font-size="15.8111" font-family="SimSun"><tspan y="-819.169" x="913.4822 929.66098 945.8397 962.0189 978.1977 994.37649 1010.55526 1026.734 1042.9129 1059.0917 1075.2702 1091.4494 1107.6282 1123.807 1139.9855 1156.1643 1172.3435 1188.5223 1204.7012 1220.88 1237.0588 1253.2373 1269.4165 1285.5953 1301.7742 1317.9534 1334.1318 1350.3107 1366.4891">&#x575a;&#x6301;&#x548c;&#x52a0;&#x5f3a;&#x515a;&#x7684;&#x5168;&#x9762;&#x9886;&#x5bfc;&#xff0c;&#x4e3a;&#x63a8;&#x8fdb;&#x65b0;&#x65f6;&#x4ee3;&#x4e2d;&#x56fd;&#x7279;&#x8272;&#x793e;&#x4f1a;&#x4e3b;&#x4e49;&#x4e8b;&#x4e1a;&#x63d0;</tspan></text>
<text fill="#303030" xml:space="preserve" transform="matrix(1 0 -0 1 0 1448)" font-size="15.8111" font-family="SimSun"><tspan y="-819.169" x="913.1146 929.2934 945.47219 961.65097 977.8297 994.0085 1010.18728 1026.3665 1042.5449 1058.7238 1074.9026 1091.0814 1107.2603 1123.4391 1139.6179 1155.7968 1171.9756 1188.1544 1204.3333 1220.5121 1236.6906 1252.8698 1269.049 1285.2274 1301.4063 1317.5851 1333.7639 1349.9431 1366.122">&#x575a;&#x6301;&#x548c;&#x52a0;&#x5f3a;&#x515a;&#x7684;&#x5168;&#x9762;&#x9886;&#x5bfc;&#xff0c;&#x4e3a;&#x63a8;&#x8fdb;&#x65b0;&#x65f6;&#x4ee3;&#x4e2d;&#x56fd;&#x7279;&#x8272;&#x793e;&#x4f1a;&#x4e3b;&#x4e49;&#x4e8b;&#x4e1a;&#x63d0;</tspan></text>
<text fill="#303030" xml:space="preserve" transform="matrix(1 0 -0 1 0 1448)" font-size="15.8111" font-family="SimSun"><tspan y="-801.1512" x="913.4822 929.66098 945.8397 962.0189 978.1977 994.37649 1010.55526 1026.734 1042.9129 1059.0917 1075.2702 1091.4494 1107.6282 1123.807 1139.9855 1156.1643 1172.3435 1188.5223 1204.7012 1220.88 1237.0588 1253.2373 1269.4165 1285.5953 1301.7742 1317.9534 1334.1318">&#x4f9b;&#x4e86;&#x653f;&#x6cbb;&#x4fdd;&#x8bc1;&#xff0c;&#x4f7f;&#x515a;&#x6210;&#x4e3a;&#x98ce;&#x96e8;&#x6765;&#x88ad;&#x65f6;&#x4e2d;&#x56fd;&#x4eba;&#x6c11;&#x6700;&#x53ef;&#x9760;&#x7684;&#x4e3b;&#x5fc3;&#x9aa8;</tspan></text>
<text fill="#303030" xml:space="preserve" transform="matrix(1 0 -0 1 0 1448)" font-size="15.8111" font-family="SimSun"><tspan y="-801.1512" x="913.1146 929.2934 945.47219 961.65097 977.8297 994.0085 1010.18728 1026.3665 1042.5449 1058.7238 1074.9026 1091.0814 1107.2603 1123.4391 1139.6179 1155.7968 1171.9756 1188.1544 1204.3333 1220.5121 1236.6906 1252.8698 1269.049 1285.2274 1301.4063 1317.5851 1333.7639">&#x4f9b;&#x4e86;&#x653f;&#x6cbb;&#x4fdd;&#x8bc1;&#xff0c;&#x4f7f;&#x515a;&#x6210;&#x4e3a;&#x98ce;&#x96e8;&#x6765;&#x88ad;&#x65f6;&#x4e2d;&#x56fd;&#x4eba;&#x6c11;&#x6700;&#x53ef;&#x9760;&#x7684;&#x4e3b;&#x5fc3;&#x9aa8;</tspan></text>
<path transform="matrix(.06,0,0,.06,0,0)" d="M12056.259 11264.965H22499.26V11608.161H12056.259Z" fill="#ffffff" fill-rule="evenodd"/>
<text fill="#303030" xml:space="preserve" transform="matrix(1 0 -0 1 0 1448)" font-size="15.8111" font-family="SimSun"><tspan y="-755.923" x="731.0975 747.27627 763.455 779.6338 795.81259 811.99136 828.16976 844.3485 860.5273 876.70608 892.8848 909.0636 925.2424 941.4215 957.6003 973.77908 989.9578 1006.1366 1022.31539 1038.4942 1054.6726 1070.8518 1087.0303 1103.2091 1119.388 1135.5668 1151.7456 1167.9248 1184.1033 1200.2817 1216.4606 1232.6394 1248.8182 1264.9971 1281.1755 1297.3544 1313.5332">&#x515a;&#x7684;&#x9886;&#x5bfc;&#x662f;&#x515a;&#x548c;&#x56fd;&#x5bb6;&#x7684;&#x6839;&#x672c;&#x6240;&#x5728;&#x3001;&#x547d;&#x8109;&#x6240;&#x5728;&#xff0c;&#x662f;&#x5168;&#x56fd;&#x5404;&#x65cf;&#x4eba;&#x6c11;&#x7684;&#x5229;&#x76ca;&#x6240;&#x7cfb;&#x3001;&#x547d;&#x8fd0;&#x6240;&#x7cfb;</tspan></text>
<text fill="#303030" xml:space="preserve" transform="matrix(1 0 -0 1 0 1448)" font-size="15.8111" font-family="SimSun"><tspan y="-755.923" x="730.7297 746.90847 763.0872 779.266 795.44479 811.62356 827.8023 843.9811 860.15988 876.3386 892.5174 908.69619 924.87496 941.0537 957.2325 973.41128 989.59 1005.7688 1021.9476 1038.1264 1054.3056 1070.484 1086.6629 1102.842 1119.0205 1135.199 1151.3782 1167.557 1183.7359 1199.9147 1216.0935 1232.272 1248.4512 1264.63 1280.8088 1296.9877 1313.1661">&#x515a;&#x7684;&#x9886;&#x5bfc;&#x662f;&#x515a;&#x548c;&#x56fd;&#x5bb6;&#x7684;&#x6839;&#x672c;&#x6240;&#x5728;&#x3001;&#x547d;&#x8109;&#x6240;&#x5728;&#xff0c;&#x662f;&#x5168;&#x56fd;&#x5404;&#x65cf;&#x4eba;&#x6c11;&#x7684;&#x5229;&#x76ca;&#x6240;&#x7cfb;&#x3001;&#x547d;&#x8fd0;&#x6240;&#x7cfb;</tspan></text>
<path transform="matrix(.06,0,0,.06,0,0)" d="M12056.259 12122.958H20550.39V12466.154H12056.259Z" fill="#ffffff" fill-rule="evenodd"/>
<text fill="#303030" xml:space="preserve" transform="matrix(1 0 -0 1 0 1448)" font-size="15.8111" font-family="SimSun"><tspan y="-704.4432" x="731.0975 747.27627 763.455 779.6338 795.81259 811.99136 828.16976 844.3485 860.5273 876.70608 892.8848 909.0636 925.2424 941.4215 957.6003 973.77908 989.9578 1006.1366 1022.31539 1038.4942 1054.6726 1070.8518 1087.0303 1103.2091 1119.388 1135.5668 1151.7456 1167.9248 1184.1033 1200.2817">&#x515a;&#x653f;&#x519b;&#x6c11;&#x5b66;&#xff0c;&#x4e1c;&#x897f;&#x5357;&#x5317;&#x4e2d;&#xff0c;&#x515a;&#x662f;&#x9886;&#x5bfc;&#x4e00;&#x5207;&#x7684;&#xff0c;&#x662f;&#x6700;&#x9ad8;&#x7684;&#x653f;&#x6cbb;&#x9886;&#x5bfc;&#x529b;&#x91cf;</tspan></text>
<text fill="#303030" xml:space="preserve" transform="matrix(1 0 -0 1 0 1448)" font-size="15.8111" font-family="SimSun"><tspan y="-704.4432" x="730.7297 746.90847 763.0872 779.266 795.44479 811.62356 827.8023 843.9811 860.15988 876.3386 892.5174 908.69619 924.87496 941.0537 957.2325 973.41128 989.59 1005.7688 1021.9476 1038.1264 1054.3056 1070.484 1086.6629 1102.842 1119.0205 1135.199 1151.3782 1167.557 1183.7359 1199.9147">&#x515a;&#x653f;&#x519b;&#x6c11;&#x5b66;&#xff0c;&#x4e1c;&#x897f;&#x5357;&#x5317;&#x4e2d;&#xff0c;&#x515a;&#x662f;&#x9886;&#x5bfc;&#x4e00;&#x5207;&#x7684;&#xff0c;&#x662f;&#x6700;&#x9ad8;&#x7684;&#x653f;&#x6cbb;&#x9886;&#x5bfc;&#x529b;&#x91cf;</tspan></text>
<path transform="matrix(.06,0,0,.06,0,0)" d="M12056.259 12980.951H22474.745V13630.574H12056.259Z" fill="#ffffff" fill-rule="evenodd"/>
<text fill="#303030" xml:space="preserve" transform="matrix(1 0 -0 1 0 1448)" font-size="15.8111" font-family="SimSun"><tspan y="-652.9637" x="731.0975 747.27627 763.455 779.6338 795.81259 811.99136 828.16976 844.3485 860.5273 876.70608 892.8848 909.0636 925.2424 941.4215 957.6003 973.77908 989.9578 1006.1366 1022.31539 1038.4942 1054.6726 1070.8518 1087.0303 1103.2091 1119.388 1135.5668 1151.7456 1167.9248 1184.1033 1200.2817 1216.4606 1232.6394 1248.8182 1264.9971 1281.1755 1297.3544 1313.5332">&#x4e2d;&#x56fd;&#x5171;&#x4ea7;&#x515a;&#x4f5c;&#x4e3a;&#x6700;&#x9ad8;&#x653f;&#x6cbb;&#x9886;&#x5bfc;&#x529b;&#x91cf;&#xff0c;&#x5f97;&#x5230;&#x4e86;&#x6700;&#x5e7f;&#x5927;&#x4eba;&#x6c11;&#x7fa4;&#x4f17;&#x7684;&#x652f;&#x6301;&#x548c;&#x62e5;&#x62a4;&#xff0c;&#x5f97;&#x5230;&#x4e86;&#x5404;</tspan></text>
<text fill="#303030" xml:space="preserve" transform="matrix(1 0 -0 1 0 1448)" font-size="15.8111" font-family="SimSun"><tspan y="-652.9637" x="730.7297 746.90847 763.0872 779.266 795.44479 811.62356 827.8023 843.9811 860.15988 876.3386 892.5174 908.69619 924.87496 941.0537 957.2325 973.41128 989.59 1005.7688 1021.9476 1038.1264 1054.3056 1070.484 1086.6629 1102.842 1119.0205 1135.199 1151.3782 1167.557 1183.7359 1199.9147 1216.0935 1232.272 1248.4512 1264.63 1280.8088 1296.9877 1313.1661">&#x4e2d;&#x56fd;&#x5171;&#x4ea7;&#x515a;&#x4f5c;&#x4e3a;&#x6700;&#x9ad8;&#x653f;&#x6cbb;&#x9886;&#x5bfc;&#x529b;&#x91cf;&#xff0c;&#x5f97;&#x5230;&#x4e86;&#x6700;&#x5e7f;&#x5927;&#x4eba;&#x6c11;&#x7fa4;&#x4f17;&#x7684;&#x652f;&#x6301;&#x548c;&#x62e5;&#x62a4;&#xff0c;&#x5f97;&#x5230;&#x4e86;&#x5404;</tspan></text>
<text fill="#303030" xml:space="preserve" transform="matrix(1 0 -0 1 0 1448)" font-size="15.8111" font-family="SimSun"><tspan y="-634.9459" x="731.0975 747.27627 763.455 779.6338 795.81259 811.99136 828.16976 844.3485 860.5273 876.70608 892.8848 909.0636 925.2424 941.4215 957.6003 973.77908 989.9578 1006.1366 1022.31539 1038.4942 1054.6726 1070.8518 1087.0303 1103.2091 1119.388 1135.5668 1151.7456">&#x6c11;&#x4e3b;&#x515a;&#x6d3e;&#x3001;&#x5404;&#x56e2;&#x4f53;&#x3001;&#x5404;&#x6c11;&#x65cf;&#x3001;&#x5404;&#x9636;&#x5c42;&#x3001;&#x5404;&#x754c;&#x4eba;&#x58eb;&#x7684;&#x652f;&#x6301;&#x548c;&#x62e5;&#x62a4;</tspan></text>
<text fill="#303030" xml:space="preserve" transform="matrix(1 0 -0 1 0 1448)" font-size="15.8111" font-family="SimSun"><tspan y="-634.9459" x="730.7297 746.90847 763.0872 779.266 795.44479 811.62356 827.8023 843.9811 860.15988 876.3386 892.5174 908.69619 924.87496 941.0537 957.2325 973.41128 989.59 1005.7688 1021.9476 1038.1264 1054.3056 1070.484 1086.6629 1102.842 1119.0205 1135.199 1151.3782">&#x6c11;&#x4e3b;&#x515a;&#x6d3e;&#x3001;&#x5404;&#x56e2;&#x4f53;&#x3001;&#x5404;&#x6c11;&#x65cf;&#x3001;&#x5404;&#x9636;&#x5c42;&#x3001;&#x5404;&#x754c;&#x4eba;&#x58eb;&#x7684;&#x652f;&#x6301;&#x548c;&#x62e5;&#x62a4;</tspan></text>
<path transform="matrix(.06,0,0,.06,0,0)" d="M12056.259 13704.113H20280.735V14059.568H12056.259Z" fill="#ffffff" fill-rule="evenodd"/>
<text fill="#303030" xml:space="preserve" transform="matrix(1 0 -0 1 0 1448)" font-size="15.8111" font-family="SimSun"><tspan y="-609.2061" x="731.0975 747.27627 763.455 779.6338 795.81259 811.99136 828.16976 844.3485 860.5273 876.70608 892.8848 909.0636 925.2424 941.4215 957.6003 973.77908 989.9578 1006.1366 1022.31539 1038.4942 1054.6726 1070.8518 1087.0303 1103.2091 1119.388 1135.5668">&#x4e2d;&#x56fd;&#x5171;&#x4ea7;&#x515a;&#x6210;&#x4e3a;&#x63a8;&#x52a8;&#x4e2d;&#x56fd;&#x5386;&#x53f2;&#x524d;&#x8fdb;&#x65e0;&#x53ef;&#x66ff;&#x4ee3;&#x7684;&#x9886;&#x5bfc;&#x6838;&#x5fc3;&#x529b;&#x91cf;</tspan></text>
<text fill="#303030" xml:space="preserve" transform="matrix(1 0 -0 1 0 1448)" font-size="15.8111" font-family="SimSun"><tspan y="-609.2061" x="730.7297 746.90847 763.0872 779.266 795.44479 811.62356 827.8023 843.9811 860.15988 876.3386 892.5174 908.69619 924.87496 941.0537 957.2325 973.41128 989.59 1005.7688 1021.9476 1038.1264 1054.3056 1070.484 1086.6629 1102.842 1119.0205 1135.199">&#x4e2d;&#x56fd;&#x5171;&#x4ea7;&#x515a;&#x6210;&#x4e3a;&#x63a8;&#x52a8;&#x4e2d;&#x56fd;&#x5386;&#x53f2;&#x524d;&#x8fdb;&#x65e0;&#x53ef;&#x66ff;&#x4ee3;&#x7684;&#x9886;&#x5bfc;&#x6838;&#x5fc3;&#x529b;&#x91cf;</tspan></text>
<path transform="matrix(.06,0,0,.06,0,0)" d="M12056.259 14133.11H21261.297V14488.564H12056.259Z" fill="#ffffff" fill-rule="evenodd"/>
<text fill="#303030" xml:space="preserve" transform="matrix(1 0 -0 1 0 1448)" font-size="15.8111" font-family="SimSun"><tspan y="-583.4663" x="731.0975 747.27627 763.455 779.6338 795.81259 811.99136 828.16976 844.3485 860.5273 876.70608 892.8848 909.0636 925.2424 941.4215 957.6003 973.77908 989.9578 1006.1366 1022.31539 1038.4942 1054.6726 1070.8518 1087.0303 1103.2091 1119.388 1135.5668 1151.7456 1167.9248 1184.1033 1200.2817 1216.4606 1232.6394 1248.8182">&#x4e2d;&#x56fd;&#x5171;&#x4ea7;&#x515a;&#x4f5c;&#x4e3a;&#x6700;&#x9ad8;&#x653f;&#x6cbb;&#x9886;&#x5bfc;&#x529b;&#x91cf;&#x662f;&#x7531;&#x6211;&#x56fd;&#x56fd;&#x5bb6;&#x6027;&#x8d28;&#x548c;&#x653f;&#x6cbb;&#x5236;&#x5ea6;&#x4f53;&#x7cfb;&#x51b3;&#x5b9a;&#x7684;</tspan></text>
<text fill="#303030" xml:space="preserve" transform="matrix(1 0 -0 1 0 1448)" font-size="15.8111" font-family="SimSun"><tspan y="-583.4663" x="730.7297 746.90847 763.0872 779.266 795.44479 811.62356 827.8023 843.9811 860.15988 876.3386 892.5174 908.69619 924.87496 941.0537 957.2325 973.41128 989.59 1005.7688 1021.9476 1038.1264 1054.3056 1070.484 1086.6629 1102.842 1119.0205 1135.199 1151.3782 1167.557 1183.7359 1199.9147 1216.0935 1232.272 1248.4512">&#x4e2d;&#x56fd;&#x5171;&#x4ea7;&#x515a;&#x4f5c;&#x4e3a;&#x6700;&#x9ad8;&#x653f;&#x6cbb;&#x9886;&#x5bfc;&#x529b;&#x91cf;&#x662f;&#x7531;&#x6211;&#x56fd;&#x56fd;&#x5bb6;&#x6027;&#x8d28;&#x548c;&#x653f;&#x6cbb;&#x5236;&#x5ea6;&#x4f53;&#x7cfb;&#x51b3;&#x5b9a;&#x7684;</tspan></text>
<path transform="matrix(.06,0,0,.06,0,0)" d="M13404.534 20727.403H20354.276V21070.598H13404.534Z" fill="#ffffff" fill-rule="evenodd"/>
<text fill="#303030" xml:space="preserve" transform="matrix(1 0 -0 1 0 1448)" font-size="15.8111" font-family="SimSun"><tspan y="-188.1768" x="811.9941 828.1725 844.35128 860.53 876.7088 892.8876 909.06637 925.2451 941.4243 957.6031 973.78189 989.96066 1006.1394 1022.3182 1038.497 1054.6754 1070.8546 1087.0331 1103.2119 1119.3908 1135.5696 1151.7484 1167.9276 1184.1061">&#x515a;&#x7684;&#x9886;&#x5bfc;&#x5236;&#x5ea6;&#x5728;&#x6211;&#x56fd;&#x56fd;&#x5bb6;&#x653f;&#x6cbb;&#x5236;&#x5ea6;&#x4f53;&#x7cfb;&#x4e2d;&#x5c45;&#x4e8e;&#x7edf;&#x9886;&#x5730;&#x4f4d;</tspan></text>
<text fill="#303030" xml:space="preserve" transform="matrix(1 0 -0 1 0 1448)" font-size="15.8111" font-family="SimSun"><tspan y="-188.1768" x="811.6262 827.805 843.98379 860.16256 876.3413 892.5201 908.69888 924.8776 941.0564 957.23519 973.41397 989.5927 1005.7715 1021.95028 1038.129 1054.3082 1070.4867 1086.6655 1102.8447 1119.0232 1135.2017 1151.3809 1167.5597 1183.7385">&#x515a;&#x7684;&#x9886;&#x5bfc;&#x5236;&#x5ea6;&#x5728;&#x6211;&#x56fd;&#x56fd;&#x5bb6;&#x653f;&#x6cbb;&#x5236;&#x5ea6;&#x4f53;&#x7cfb;&#x4e2d;&#x5c45;&#x4e8e;&#x7edf;&#x9886;&#x5730;&#x4f4d;</tspan></text>
<path transform="matrix(.06,0,0,.06,0,0)" d="M12056.259 14562.106H20636.188V14917.561H12056.259Z" fill="#ffffff" fill-rule="evenodd"/>
<text fill="#303030" xml:space="preserve" transform="matrix(1 0 -0 1 0 1448)" font-size="15.8111" font-family="SimSun"><tspan y="-557.7265" x="731.0975 747.27627 763.455 779.6338 795.81259 811.99136 828.16976 844.3485 860.5273 876.70608 892.8848 909.0636 925.2424 941.4215 957.6003 973.77908 989.9578 1006.1366 1022.31539 1038.4942 1054.6726 1070.8518 1087.0303 1103.2091 1119.388 1135.5668 1151.7456 1167.9248 1184.1033 1200.2817">&#x4e2d;&#x56fd;&#x5171;&#x4ea7;&#x515a;&#x4f5c;&#x4e3a;&#x6700;&#x9ad8;&#x653f;&#x6cbb;&#x9886;&#x5bfc;&#x529b;&#x91cf;&#x662f;&#x7531;&#x4e2d;&#x534e;&#x6c11;&#x65cf;&#x4f1f;&#x5927;&#x590d;&#x5174;&#x4e8b;&#x4e1a;&#x51b3;&#x5b9a;&#x7684;</tspan></text>
<text fill="#303030" xml:space="preserve" transform="matrix(1 0 -0 1 0 1448)" font-size="15.8111" font-family="SimSun"><tspan y="-557.7265" x="730.7297 746.90847 763.0872 779.266 795.44479 811.62356 827.8023 843.9811 860.15988 876.3386 892.5174 908.69619 924.87496 941.0537 957.2325 973.41128 989.59 1005.7688 1021.9476 1038.1264 1054.3056 1070.484 1086.6629 1102.842 1119.0205 1135.199 1151.3782 1167.557 1183.7359 1199.9147">&#x4e2d;&#x56fd;&#x5171;&#x4ea7;&#x515a;&#x4f5c;&#x4e3a;&#x6700;&#x9ad8;&#x653f;&#x6cbb;&#x9886;&#x5bfc;&#x529b;&#x91cf;&#x662f;&#x7531;&#x4e2d;&#x534e;&#x6c11;&#x65cf;&#x4f1f;&#x5927;&#x590d;&#x5174;&#x4e8b;&#x4e1a;&#x51b3;&#x5b9a;&#x7684;</tspan></text>
<path transform="matrix(.06,0,0,.06,0,0)" d="M12595.566 14991.104H18907.942V15640.728H12595.566Z" fill="#ffffff" fill-rule="evenodd"/>
<text fill="#303030" xml:space="preserve" transform="matrix(1 0 -0 1 0 1448)" font-size="15.8111" font-family="SimSun"><tspan y="-531.9867" x="763.4561 779.6349 795.81369 811.99246 828.17086 844.3496 860.5284 876.70718 892.8859 909.0647 925.24349 941.4226 957.6014 973.78018 989.9589 1006.1377 1022.31649 1038.4953 1054.6741 1070.8533 1087.0317 1103.2106">&#x4e0d;&#x662f;&#x8bf4;&#x515a;&#x7ec4;&#x7ec7;&#x5305;&#x63fd;&#x5305;&#x529e;&#x4e00;&#x5207;&#x3001;&#x4e8b;&#x65e0;&#x5de8;&#x7ec6;&#x4ec0;&#x4e48;&#x90fd;&#x53bb;&#x7ba1;</tspan></text>
<text fill="#303030" xml:space="preserve" transform="matrix(1 0 -0 1 0 1448)" font-size="15.8111" font-family="SimSun"><tspan y="-531.9867" x="763.0884 779.26718 795.4459 811.6247 827.80349 843.98226 860.161 876.3398 892.51858 908.6973 924.8761 941.0549 957.23367 973.4124 989.5912 1005.76998 1021.9487 1038.1276 1054.3068 1070.4852 1086.6641 1102.8433">&#x4e0d;&#x662f;&#x8bf4;&#x515a;&#x7ec4;&#x7ec7;&#x5305;&#x63fd;&#x5305;&#x529e;&#x4e00;&#x5207;&#x3001;&#x4e8b;&#x65e0;&#x5de8;&#x7ec6;&#x4ec0;&#x4e48;&#x90fd;&#x53bb;&#x7ba1;</tspan></text>
<text fill="#303030" xml:space="preserve" transform="matrix(1 0 -0 1 0 1448)" font-size="15.8111" font-family="SimSun"><tspan y="-513.9689" x="763.4561 779.6349 795.81369 811.99246 828.17086 844.3496 860.5284 876.70718 892.8859 909.0647 925.24349 941.4226 957.6014 973.78018 989.9589 1006.1377 1022.31649 1038.4953 1054.6741">&#xff0c;&#x800c;&#x662f;&#x5728;&#x5404;&#x7ea7;&#x5404;&#x79cd;&#x7ec4;&#x7ec7;&#x4e2d;&#x53d1;&#x6325;&#x9886;&#x5bfc;&#x6838;&#x5fc3;&#x4f5c;&#x7528;</tspan></text>
<text fill="#303030" xml:space="preserve" transform="matrix(1 0 -0 1 0 1448)" font-size="15.8111" font-family="SimSun"><tspan y="-513.9689" x="763.0884 779.26718 795.4459 811.6247 827.80349 843.98226 860.161 876.3398 892.51858 908.6973 924.8761 941.0549 957.23367 973.4124 989.5912 1005.76998 1021.9487 1038.1276 1054.3068">&#xff0c;&#x800c;&#x662f;&#x5728;&#x5404;&#x7ea7;&#x5404;&#x79cd;&#x7ec4;&#x7ec7;&#x4e2d;&#x53d1;&#x6325;&#x9886;&#x5bfc;&#x6838;&#x5fc3;&#x4f5c;&#x7528;</tspan></text>
<path transform="matrix(.06,0,0,.06,0,0)" d="M12056.259 15726.525H18368.635V16670.32H12056.259Z" fill="#ffffff" fill-rule="evenodd"/>
<text fill="#303030" xml:space="preserve" transform="matrix(1 0 -0 1 0 1448)" font-size="15.8111" font-family="SimSun"><tspan y="-488.229" x="731.0975 747.27627 763.455 779.6338 795.81259 811.99136 828.16976 844.3485 860.5273 876.70608 892.8848 909.0636 925.2424 941.4215 957.6003 973.77908 989.9578 1006.1366 1022.31539 1038.4942 1054.6726 1070.8518">&#x515a;&#x4e2d;&#x592e;&#x96c6;&#x4e2d;&#x7edf;&#x4e00;&#x9886;&#x5bfc;&#x662f;&#x515a;&#x7684;&#x9886;&#x5bfc;&#x7684;&#x6700;&#x9ad8;&#x539f;&#x5219;&#xff0c;&#x662f;&#x515a;</tspan></text>
<text fill="#303030" xml:space="preserve" transform="matrix(1 0 -0 1 0 1448)" font-size="15.8111" font-family="SimSun"><tspan y="-488.229" x="730.7297 746.90847 763.0872 779.266 795.44479 811.62356 827.8023 843.9811 860.15988 876.3386 892.5174 908.69619 924.87496 941.0537 957.2325 973.41128 989.59 1005.7688 1021.9476 1038.1264 1054.3056 1070.484">&#x515a;&#x4e2d;&#x592e;&#x96c6;&#x4e2d;&#x7edf;&#x4e00;&#x9886;&#x5bfc;&#x662f;&#x515a;&#x7684;&#x9886;&#x5bfc;&#x7684;&#x6700;&#x9ad8;&#x539f;&#x5219;&#xff0c;&#x662f;&#x515a;</tspan></text>
<text fill="#303030" xml:space="preserve" transform="matrix(1 0 -0 1 0 1448)" font-size="15.8111" font-family="SimSun"><tspan y="-470.2112" x="731.0975 747.27627 763.455 779.6338 795.81259 811.99136 828.16976 844.3485 860.5273 876.70608 892.8848 909.0636 925.2424 941.4215 957.6003 973.77908 989.9578 1006.1366 1022.31539 1038.4942 1054.6726 1070.8518">&#x4fdd;&#x6301;&#x56e2;&#x7ed3;&#x7edf;&#x4e00;&#x548c;&#x5f3a;&#x5927;&#x6218;&#x6597;&#x529b;&#x3001;&#x4e0d;&#x65ad;&#x53d6;&#x5f97;&#x80dc;&#x5229;&#x7684;&#x5173;&#x952e;</tspan></text>
<text fill="#303030" xml:space="preserve" transform="matrix(1 0 -0 1 0 1448)" font-size="15.8111" font-family="SimSun"><tspan y="-470.2112" x="730.7297 746.90847 763.0872 779.266 795.44479 811.62356 827.8023 843.9811 860.15988 876.3386 892.5174 908.69619 924.87496 941.0537 957.2325 973.41128 989.59 1005.7688 1021.9476 1038.1264 1054.3056 1070.484">&#x4fdd;&#x6301;&#x56e2;&#x7ed3;&#x7edf;&#x4e00;&#x548c;&#x5f3a;&#x5927;&#x6218;&#x6597;&#x529b;&#x3001;&#x4e0d;&#x65ad;&#x53d6;&#x5f97;&#x80dc;&#x5229;&#x7684;&#x5173;&#x952e;</tspan></text>
<text fill="#303030" xml:space="preserve" transform="matrix(1 0 -0 1 0 1448)" font-size="15.8111" font-family="SimSun"><tspan y="-452.1933" x="731.0975 747.27627">&#x6240;&#x5728;</tspan></text>
<text fill="#303030" xml:space="preserve" transform="matrix(1 0 -0 1 0 1448)" font-size="15.8111" font-family="SimSun"><tspan y="-452.1933" x="730.7297 746.90847">&#x6240;&#x5728;</tspan></text>
<path transform="matrix(.06,0,0,.06,0,0)" d="M12056.259 16756.12H18368.635V17405.74H12056.259Z" fill="#ffffff" fill-rule="evenodd"/>
<text fill="#303030" xml:space="preserve" transform="matrix(1 0 -0 1 0 1448)" font-size="15.8111" font-family="SimSun"><tspan y="-426.4534" x="731.0975 747.27627 763.455 779.6338 795.81259 811.99136 828.16976 844.3485 860.5273 876.70608 892.8848 909.0636 925.2424 941.4215 957.6003 973.77908 989.9578 1006.1366 1022.31539 1038.4942 1054.6726 1070.8518">&#x52a0;&#x5f3a;&#x548c;&#x7ef4;&#x62a4;&#x515a;&#x4e2d;&#x592e;&#x6743;&#x5a01;&#x548c;&#x96c6;&#x4e2d;&#x7edf;&#x4e00;&#x9886;&#x5bfc;&#xff0c;&#x662f;&#x5168;&#x515a;&#x5171;</tspan></text>
<text fill="#303030" xml:space="preserve" transform="matrix(1 0 -0 1 0 1448)" font-size="15.8111" font-family="SimSun"><tspan y="-426.4534" x="730.7297 746.90847 763.0872 779.266 795.44479 811.62356 827.8023 843.9811 860.15988 876.3386 892.5174 908.69619 924.87496 941.0537 957.2325 973.41128 989.59 1005.7688 1021.9476 1038.1264 1054.3056 1070.484">&#x52a0;&#x5f3a;&#x548c;&#x7ef4;&#x62a4;&#x515a;&#x4e2d;&#x592e;&#x6743;&#x5a01;&#x548c;&#x96c6;&#x4e2d;&#x7edf;&#x4e00;&#x9886;&#x5bfc;&#xff0c;&#x662f;&#x5168;&#x515a;&#x5171;</tspan></text>
<text fill="#303030" xml:space="preserve" transform="matrix(1 0 -0 1 0 1448)" font-size="15.8111" font-family="SimSun"><tspan y="-408.4356" x="731.0975 747.27627 763.455 779.6338 795.81259 811.99136 828.16976 844.3485 860.5273 876.70608 892.8848 909.0636 925.2424 941.4215 957.6003 973.77908 989.9578 1006.1366 1022.31539 1038.4942 1054.6726">&#x540c;&#x7684;&#x653f;&#x6cbb;&#x8d23;&#x4efb;&#xff0c;&#x662f;&#x515a;&#x548c;&#x56fd;&#x5bb6;&#x4e8b;&#x4e1a;&#x53d1;&#x5c55;&#x7684;&#x5fc5;&#x7136;&#x8981;&#x6c42;</tspan></text>
<text fill="#303030" xml:space="preserve" transform="matrix(1 0 -0 1 0 1448)" font-size="15.8111" font-family="SimSun"><tspan y="-408.4356" x="730.7297 746.90847 763.0872 779.266 795.44479 811.62356 827.8023 843.9811 860.15988 876.3386 892.5174 908.69619 924.87496 941.0537 957.2325 973.41128 989.59 1005.7688 1021.9476 1038.1264 1054.3056">&#x540c;&#x7684;&#x653f;&#x6cbb;&#x8d23;&#x4efb;&#xff0c;&#x662f;&#x515a;&#x548c;&#x56fd;&#x5bb6;&#x4e8b;&#x4e1a;&#x53d1;&#x5c55;&#x7684;&#x5fc5;&#x7136;&#x8981;&#x6c42;</tspan></text>
<path transform="matrix(.06,0,0,.06,0,0)" d="M12056.259 17479.286H18368.635V18128.909H12056.259Z" fill="#ffffff" fill-rule="evenodd"/>
<text fill="#303030" xml:space="preserve" transform="matrix(1 0 -0 1 0 1448)" font-size="15.8111" font-family="SimSun"><tspan y="-382.6959" x="731.0975 747.27627 763.455 779.6338 795.81259 811.99136 828.16976 844.3485 860.5273 876.70608 892.8848 909.0636 925.2424 941.4215 957.6003 973.77908 989.9578 1006.1366 1022.31539 1038.4942 1054.6726 1070.8518">&#x7ef4;&#x62a4;&#x515a;&#x4e2d;&#x592e;&#x6743;&#x5a01;&#x548c;&#x96c6;&#x4e2d;&#x7edf;&#x4e00;&#x9886;&#x5bfc;&#xff0c;&#x662f;&#x4e00;&#x4e2a;&#x6210;&#x719f;&#x7684;&#x9a6c;</tspan></text>
<text fill="#303030" xml:space="preserve" transform="matrix(1 0 -0 1 0 1448)" font-size="15.8111" font-family="SimSun"><tspan y="-382.6959" x="730.7297 746.90847 763.0872 779.266 795.44479 811.62356 827.8023 843.9811 860.15988 876.3386 892.5174 908.69619 924.87496 941.0537 957.2325 973.41128 989.59 1005.7688 1021.9476 1038.1264 1054.3056 1070.484">&#x7ef4;&#x62a4;&#x515a;&#x4e2d;&#x592e;&#x6743;&#x5a01;&#x548c;&#x96c6;&#x4e2d;&#x7edf;&#x4e00;&#x9886;&#x5bfc;&#xff0c;&#x662f;&#x4e00;&#x4e2a;&#x6210;&#x719f;&#x7684;&#x9a6c;</tspan></text>
<text fill="#303030" xml:space="preserve" transform="matrix(1 0 -0 1 0 1448)" font-size="15.8111" font-family="SimSun"><tspan y="-364.6781" x="731.0975 747.27627 763.455 779.6338 795.81259 811.99136 828.16976 844.3485 860.5273 876.70608 892.8848 909.0636 925.2424 941.4215">&#x514b;&#x601d;&#x4e3b;&#x4e49;&#x6267;&#x653f;&#x515a;&#x7684;&#x91cd;&#x5927;&#x5efa;&#x515a;&#x539f;&#x5219;</tspan></text>
<text fill="#303030" xml:space="preserve" transform="matrix(1 0 -0 1 0 1448)" font-size="15.8111" font-family="SimSun"><tspan y="-364.6781" x="730.7297 746.90847 763.0872 779.266 795.44479 811.62356 827.8023 843.9811 860.15988 876.3386 892.5174 908.69619 924.87496 941.0537">&#x514b;&#x601d;&#x4e3b;&#x4e49;&#x6267;&#x653f;&#x515a;&#x7684;&#x91cd;&#x5927;&#x5efa;&#x515a;&#x539f;&#x5219;</tspan></text>
<path transform="matrix(.06,0,0,.06,0,0)" d="M12056.259 18214.708H18368.635V18864.33H12056.259Z" fill="#ffffff" fill-rule="evenodd"/>
<text fill="#303030" xml:space="preserve" transform="matrix(1 0 -0 1 0 1448)" font-size="15.8111" font-family="SimSun"><tspan y="-338.9382" x="731.0975 747.27627 763.455 779.6338 795.81259 811.99136 828.16976 844.3485 860.5273 876.70608 892.8848 909.0636 925.2424 941.4215 957.6003 973.77908 989.9578 1006.1366 1022.31539 1038.4942 1054.6726 1070.8518">&#x7ef4;&#x62a4;&#x515a;&#x4e2d;&#x592e;&#x6743;&#x5a01;&#x548c;&#x96c6;&#x4e2d;&#x7edf;&#x4e00;&#x9886;&#x5bfc;&#xff0c;&#x5fc5;&#x987b;&#x575a;&#x51b3;&#x8d2f;&#x5f7b;&#x515a;</tspan></text>
<text fill="#303030" xml:space="preserve" transform="matrix(1 0 -0 1 0 1448)" font-size="15.8111" font-family="SimSun"><tspan y="-338.9382" x="730.7297 746.90847 763.0872 779.266 795.44479 811.62356 827.8023 843.9811 860.15988 876.3386 892.5174 908.69619 924.87496 941.0537 957.2325 973.41128 989.59 1005.7688 1021.9476 1038.1264 1054.3056 1070.484">&#x7ef4;&#x62a4;&#x515a;&#x4e2d;&#x592e;&#x6743;&#x5a01;&#x548c;&#x96c6;&#x4e2d;&#x7edf;&#x4e00;&#x9886;&#x5bfc;&#xff0c;&#x5fc5;&#x987b;&#x575a;&#x51b3;&#x8d2f;&#x5f7b;&#x515a;</tspan></text>
<text fill="#303030" xml:space="preserve" transform="matrix(1 0 -0 1 0 1448)" font-size="15.8111" font-family="SimSun"><tspan y="-320.9204" x="731.0975 747.27627 763.455 779.6338 795.81259 811.99136 828.16976 844.3485 860.5273 876.70608 892.8848 909.0636 925.2424 941.4215 957.6003 973.77908 989.9578 1006.1366">&#x7684;&#x7406;&#x8bba;&#x3001;&#x8def;&#x7ebf;&#x65b9;&#x9488;&#x653f;&#x7b56;&#x548c;&#x515a;&#x4e2d;&#x592e;&#x51b3;&#x7b56;&#x90e8;&#x7f72;</tspan></text>
<text fill="#303030" xml:space="preserve" transform="matrix(1 0 -0 1 0 1448)" font-size="15.8111" font-family="SimSun"><tspan y="-320.9204" x="730.7297 746.90847 763.0872 779.266 795.44479 811.62356 827.8023 843.9811 860.15988 876.3386 892.5174 908.69619 924.87496 941.0537 957.2325 973.41128 989.59 1005.7688">&#x7684;&#x7406;&#x8bba;&#x3001;&#x8def;&#x7ebf;&#x65b9;&#x9488;&#x653f;&#x7b56;&#x548c;&#x515a;&#x4e2d;&#x592e;&#x51b3;&#x7b56;&#x90e8;&#x7f72;</tspan></text>
<path transform="matrix(.06,0,0,.06,0,0)" d="M12056.259 18937.879H18368.635V19587.5H12056.259Z" fill="#ffffff" fill-rule="evenodd"/>
<text fill="#303030" xml:space="preserve" transform="matrix(1 0 -0 1 0 1448)" font-size="15.8111" font-family="SimSun"><tspan y="-295.1805" x="731.0975 747.27627 763.455 779.6338 795.81259 811.99136 828.16976 844.3485 860.5273 876.70608 892.8848 909.0636 925.2424 941.4215 957.6003 973.77908 989.9578 1006.1366 1022.31539 1038.4942 1054.6726 1070.8518">&#x7ef4;&#x62a4;&#x515a;&#x4e2d;&#x592e;&#x6743;&#x5a01;&#x548c;&#x96c6;&#x4e2d;&#x7edf;&#x4e00;&#x9886;&#x5bfc;&#xff0c;&#x6700;&#x5173;&#x952e;&#x7684;&#x662f;&#x575a;&#x51b3;</tspan></text>
<text fill="#303030" xml:space="preserve" transform="matrix(1 0 -0 1 0 1448)" font-size="15.8111" font-family="SimSun"><tspan y="-295.1805" x="730.7297 746.90847 763.0872 779.266 795.44479 811.62356 827.8023 843.9811 860.15988 876.3386 892.5174 908.69619 924.87496 941.0537 957.2325 973.41128 989.59 1005.7688 1021.9476 1038.1264 1054.3056 1070.484">&#x7ef4;&#x62a4;&#x515a;&#x4e2d;&#x592e;&#x6743;&#x5a01;&#x548c;&#x96c6;&#x4e2d;&#x7edf;&#x4e00;&#x9886;&#x5bfc;&#xff0c;&#x6700;&#x5173;&#x952e;&#x7684;&#x662f;&#x575a;&#x51b3;</tspan></text>
<text fill="#303030" xml:space="preserve" transform="matrix(1 0 -0 1 0 1448)" font-size="15.8111" font-family="SimSun"><tspan y="-277.1628" x="731.0975 747.27627 763.455 779.6338 795.81259 811.99136 828.16976 844.3485 860.5273 876.70608 892.8848 909.0636 925.2424 941.4215 957.6003 973.77908 989.9578 1006.1366 1022.31539 1038.4942 1054.6726">&#x7ef4;&#x62a4;&#x4e60;&#x8fd1;&#x5e73;&#x540c;&#x5fd7;&#x515a;&#x4e2d;&#x592e;&#x7684;&#x6838;&#x5fc3;&#x3001;&#x5168;&#x515a;&#x7684;&#x6838;&#x5fc3;&#x5730;&#x4f4d;</tspan></text>
<text fill="#303030" xml:space="preserve" transform="matrix(1 0 -0 1 0 1448)" font-size="15.8111" font-family="SimSun"><tspan y="-277.1628" x="730.7297 746.90847 763.0872 779.266 795.44479 811.62356 827.8023 843.9811 860.15988 876.3386 892.5174 908.69619 924.87496 941.0537 957.2325 973.41128 989.59 1005.7688 1021.9476 1038.1264 1054.3056">&#x7ef4;&#x62a4;&#x4e60;&#x8fd1;&#x5e73;&#x540c;&#x5fd7;&#x515a;&#x4e2d;&#x592e;&#x7684;&#x6838;&#x5fc3;&#x3001;&#x5168;&#x515a;&#x7684;&#x6838;&#x5fc3;&#x5730;&#x4f4d;</tspan></text>
<path transform="matrix(.06,0,0,.06,0,0)" d="M12056.259 19673.293H18368.635V20322.916H12056.259Z" fill="#ffffff" fill-rule="evenodd"/>
<text fill="#303030" xml:space="preserve" transform="matrix(1 0 -0 1 0 1448)" font-size="15.8111" font-family="SimSun"><tspan y="-251.423" x="731.0975 747.27627 763.455 779.6338 795.81259 811.99136 828.16976 844.3485 860.5273 876.70608 892.8848 909.0636 925.2424 941.4215 957.6003 973.77908 989.9578 1006.1366 1022.31539 1038.4942 1054.6726 1070.8518">&#x7ef4;&#x62a4;&#x515a;&#x4e2d;&#x592e;&#x6743;&#x5a01;&#x548c;&#x96c6;&#x4e2d;&#x7edf;&#x4e00;&#x9886;&#x5bfc;&#xff0c;&#x540c;&#x575a;&#x6301;&#x515a;&#x7684;&#x6c11;&#x4e3b;</tspan></text>
<text fill="#303030" xml:space="preserve" transform="matrix(1 0 -0 1 0 1448)" font-size="15.8111" font-family="SimSun"><tspan y="-251.423" x="730.7297 746.90847 763.0872 779.266 795.44479 811.62356 827.8023 843.9811 860.15988 876.3386 892.5174 908.69619 924.87496 941.0537 957.2325 973.41128 989.59 1005.7688 1021.9476 1038.1264 1054.3056 1070.484">&#x7ef4;&#x62a4;&#x515a;&#x4e2d;&#x592e;&#x6743;&#x5a01;&#x548c;&#x96c6;&#x4e2d;&#x7edf;&#x4e00;&#x9886;&#x5bfc;&#xff0c;&#x540c;&#x575a;&#x6301;&#x515a;&#x7684;&#x6c11;&#x4e3b;</tspan></text>
<text fill="#303030" xml:space="preserve" transform="matrix(1 0 -0 1 0 1448)" font-size="15.8111" font-family="SimSun"><tspan y="-233.4051" x="731.0975 747.27627 763.455 779.6338 795.81259 811.99136 828.16976 844.3485 860.5273">&#x96c6;&#x4e2d;&#x5236;&#x662f;&#x5b8c;&#x5168;&#x4e00;&#x81f4;&#x7684;</tspan></text>
<text fill="#303030" xml:space="preserve" transform="matrix(1 0 -0 1 0 1448)" font-size="15.8111" font-family="SimSun"><tspan y="-233.4051" x="730.7297 746.90847 763.0872 779.266 795.44479 811.62356 827.8023 843.9811 860.15988">&#x96c6;&#x4e2d;&#x5236;&#x662f;&#x5b8c;&#x5168;&#x4e00;&#x81f4;&#x7684;</tspan></text>
<path transform="matrix(.06,0,0,.06,0,0)" d="M18699.577 19673.293H23504.336V20322.916H18699.577Z" fill="#ffffff" fill-rule="evenodd"/>
<text fill="#303030" xml:space="preserve" transform="matrix(1 0 -0 1 0 1448)" font-size="15.8111" font-family="SimSun"><tspan y="-251.423" x="1129.6963 1145.8755 1162.0547 1178.2332 1194.412 1210.5905 1226.7689 1242.9481 1259.127 1275.3058 1291.4846 1307.6635 1323.8423 1340.0208 1356.1996 1372.3788">&#x4e2d;&#x56fd;&#x5171;&#x4ea7;&#x515a;&#x662f;&#x4ee5;&#x6c11;&#x4e3b;&#x96c6;&#x4e2d;&#x5236;&#x4e3a;&#x6839;&#x672c;&#x7ec4;</tspan></text>
<text fill="#303030" xml:space="preserve" transform="matrix(1 0 -0 1 0 1448)" font-size="15.8111" font-family="SimSun"><tspan y="-251.423" x="1129.3291 1145.5079 1161.6864 1177.8656 1194.0441 1210.2229 1226.4017 1242.5806 1258.7594 1274.9382 1291.1171 1307.2959 1323.4747 1339.6536 1355.8328 1372.0112">&#x4e2d;&#x56fd;&#x5171;&#x4ea7;&#x515a;&#x662f;&#x4ee5;&#x6c11;&#x4e3b;&#x96c6;&#x4e2d;&#x5236;&#x4e3a;&#x6839;&#x672c;&#x7ec4;</tspan></text>
<text fill="#303030" xml:space="preserve" transform="matrix(1 0 -0 1 0 1448)" font-size="15.8111" font-family="SimSun"><tspan y="-233.4051" x="1129.6963 1145.8755 1162.0547 1178.2332 1194.412 1210.5905 1226.7689 1242.9481 1259.127 1275.3058 1291.4846 1307.6635 1323.8423 1340.0208 1356.1996 1372.3788">&#x7ec7;&#x539f;&#x5219;&#x548c;&#x9886;&#x5bfc;&#x5236;&#x5ea6;&#x7684;&#x9a6c;&#x514b;&#x601d;&#x4e3b;&#x4e49;&#x653f;&#x515a;</tspan></text>
<text fill="#303030" xml:space="preserve" transform="matrix(1 0 -0 1 0 1448)" font-size="15.8111" font-family="SimSun"><tspan y="-233.4051" x="1129.3291 1145.5079 1161.6864 1177.8656 1194.0441 1210.2229 1226.4017 1242.5806 1258.7594 1274.9382 1291.1171 1307.2959 1323.4747 1339.6536 1355.8328 1372.0112">&#x7ec7;&#x539f;&#x5219;&#x548c;&#x9886;&#x5bfc;&#x5236;&#x5ea6;&#x7684;&#x9a6c;&#x514b;&#x601d;&#x4e3b;&#x4e49;&#x653f;&#x515a;</tspan></text>
<path transform="matrix(.06,0,0,.06,0,0)" d="M13404.534 21156.399H19569.827V21499.594H13404.534Z" fill="#ffffff" fill-rule="evenodd"/>
<text fill="#303030" xml:space="preserve" transform="matrix(1 0 -0 1 0 1448)" font-size="15.8111" font-family="SimSun"><tspan y="-162.4368" x="811.9941 828.1725 844.35128 860.53 876.7088 892.8876 909.06637 925.2451 941.4243 957.6031 973.78189 989.96066 1006.1394 1022.3182 1038.497 1054.6754 1070.8546 1087.0331 1103.2119 1119.3908 1135.5696 1151.7484">&#x515a;&#x7684;&#x9886;&#x5bfc;&#x5236;&#x5ea6;&#x662f;&#x4e2d;&#x56fd;&#x7279;&#x8272;&#x793e;&#x4f1a;&#x4e3b;&#x4e49;&#x5236;&#x5ea6;&#x5efa;&#x8bbe;&#x7684;&#x5173;&#x952e;</tspan></text>
<text fill="#303030" xml:space="preserve" transform="matrix(1 0 -0 1 0 1448)" font-size="15.8111" font-family="SimSun"><tspan y="-162.4368" x="811.6262 827.805 843.98379 860.16256 876.3413 892.5201 908.69888 924.8776 941.0564 957.23519 973.41397 989.5927 1005.7715 1021.95028 1038.129 1054.3082 1070.4867 1086.6655 1102.8447 1119.0232 1135.2017 1151.3809">&#x515a;&#x7684;&#x9886;&#x5bfc;&#x5236;&#x5ea6;&#x662f;&#x4e2d;&#x56fd;&#x7279;&#x8272;&#x793e;&#x4f1a;&#x4e3b;&#x4e49;&#x5236;&#x5ea6;&#x5efa;&#x8bbe;&#x7684;&#x5173;&#x952e;</tspan></text>
<path transform="matrix(.06,0,0,.06,0,0)" d="M12865.224 21585.395H22156.063V21928.592H12865.224Z" fill="#ffffff" fill-rule="evenodd"/>
<text fill="#303030" xml:space="preserve" transform="matrix(1 0 -0 1 0 1448)" font-size="15.8111" font-family="SimSun"><tspan y="-136.6971" x="779.6354 795.81417 811.9929 828.1713 844.3501 860.5289 876.70767 892.8864 909.0652 925.24398 941.4231 957.60189 973.78067 989.9594 1006.1382 1022.31698 1038.4957 1054.6742 1070.8534 1087.0319 1103.2107 1119.3895 1135.5684 1151.7472 1167.9264 1184.1049 1200.2833 1216.4622">&#x52a0;&#x5f3a;&#x515a;&#x4e2d;&#x592e;&#x5bf9;&#x91cd;&#x5927;&#x5de5;&#x4f5c;&#x7684;&#x9886;&#x5bfc;&#xff0c;&#x662f;&#x6211;&#x4eec;&#x515a;&#x7684;&#x4f18;&#x826f;&#x4f20;&#x7edf;&#x548c;&#x5b9d;&#x8d35;&#x7ecf;&#x9a8c;</tspan></text>
<text fill="#303030" xml:space="preserve" transform="matrix(1 0 -0 1 0 1448)" font-size="15.8111" font-family="SimSun"><tspan y="-136.6971" x="779.2677 795.4465 811.62527 827.804 843.9828 860.16159 876.34036 892.5191 908.6979 924.87667 941.0554 957.2342 973.41299 989.59176 1005.7705 1021.9493 1038.128 1054.3073 1070.4857 1086.6646 1102.8438 1119.0222 1135.2007 1151.3799 1167.5587 1183.7376 1199.9164 1216.0952">&#x52a0;&#x5f3a;&#x515a;&#x4e2d;&#x592e;&#x5bf9;&#x91cd;&#x5927;&#x5de5;&#x4f5c;&#x7684;&#x9886;&#x5bfc;&#xff0c;&#x662f;&#x6211;&#x4eec;&#x515a;&#x7684;&#x4f18;&#x826f;&#x4f20;&#x7edf;&#x548c;&#x5b9d;&#x8d35;&#x7ecf;&#x9a8c;</tspan></text>
<path transform="matrix(.06,0,0,.06,0,0)" d="M12865.224 22014.39H22315.405V22357.588H12865.224Z" fill="#ffffff" fill-rule="evenodd"/>
<text fill="#303030" xml:space="preserve" transform="matrix(1 0 -0 1 0 1448)" font-size="15.8111" font-family="SimSun"><tspan y="-110.9574" x="779.6354 795.81417 811.9929 828.1713 844.3501 860.5289 876.70767 892.8864 909.0652 925.24398 941.4231 957.60189 973.78067 989.9594 1006.1382 1022.31698 1038.4957 1054.6742 1070.8534 1087.0319 1103.2107 1119.3895 1135.5684 1151.7472 1167.9264 1184.1049 1200.2833 1216.4622 1232.641 1248.8198 1264.9987">&#x52a0;&#x5f3a;&#x515a;&#x4e2d;&#x592e;&#x5bf9;&#x91cd;&#x5927;&#x5de5;&#x4f5c;&#x7684;&#x9886;&#x5bfc;&#xff0c;&#x5fc5;&#x987b;&#x5b8c;&#x5584;&#x515a;&#x4e2d;&#x592e;&#x91cd;&#x5927;&#x51b3;&#x7b56;&#x90e8;&#x7f72;&#x843d;&#x5b9e;&#x673a;&#x5236;</tspan></text>
<text fill="#303030" xml:space="preserve" transform="matrix(1 0 -0 1 0 1448)" font-size="15.8111" font-family="SimSun"><tspan y="-110.9574" x="779.2677 795.4465 811.62527 827.804 843.9828 860.16159 876.34036 892.5191 908.6979 924.87667 941.0554 957.2342 973.41299 989.59176 1005.7705 1021.9493 1038.128 1054.3073 1070.4857 1086.6646 1102.8438 1119.0222 1135.2007 1151.3799 1167.5587 1183.7376 1199.9164 1216.0952 1232.2737 1248.4529 1264.6314">&#x52a0;&#x5f3a;&#x515a;&#x4e2d;&#x592e;&#x5bf9;&#x91cd;&#x5927;&#x5de5;&#x4f5c;&#x7684;&#x9886;&#x5bfc;&#xff0c;&#x5fc5;&#x987b;&#x5b8c;&#x5584;&#x515a;&#x4e2d;&#x592e;&#x91cd;&#x5927;&#x51b3;&#x7b56;&#x90e8;&#x7f72;&#x843d;&#x5b9e;&#x673a;&#x5236;</tspan></text>
<path transform="matrix(.06,0,0,.06,0,0)" d="M11516.95 22443.389H17142.932V22786.584H11516.95Z" fill="#ffffff" fill-rule="evenodd"/>
<text fill="#303030" xml:space="preserve" transform="matrix(1 0 -0 1 0 1448)" font-size="15.8111" font-family="SimSun"><tspan y="-85.2176" x="698.7388 714.91757 731.0963 747.2751 763.45388 779.6326 795.8114 811.9902 828.16897 844.3477 860.5265 876.70529 892.88406 909.0628 925.2416 941.42037 957.5991 973.7779 989.95669 1006.13546">&#x5fc5;&#x987b;&#x5b8c;&#x5584;&#x515a;&#x5728;&#x5404;&#x79cd;&#x7ec4;&#x7ec7;&#x4e2d;&#x53d1;&#x6325;&#x9886;&#x5bfc;&#x4f5c;&#x7528;&#x7684;&#x5236;&#x5ea6;</tspan></text>
<text fill="#303030" xml:space="preserve" transform="matrix(1 0 -0 1 0 1448)" font-size="15.8111" font-family="SimSun"><tspan y="-85.2176" x="698.3712 714.55 730.72879 746.90756 763.0863 779.2651 795.44387 811.6226 827.8014 843.98019 860.15896 876.3377 892.5165 908.69528 924.874 941.0528 957.23159 973.41036 989.5891 1005.7679">&#x5fc5;&#x987b;&#x5b8c;&#x5584;&#x515a;&#x5728;&#x5404;&#x79cd;&#x7ec4;&#x7ec7;&#x4e2d;&#x53d1;&#x6325;&#x9886;&#x5bfc;&#x4f5c;&#x7528;&#x7684;&#x5236;&#x5ea6;</tspan></text>
<path transform="matrix(.06,0,0,.06,0,0)" d="M11516.95 22872.385H14985.691V23215.58H11516.95Z" fill="#ffffff" fill-rule="evenodd"/>
<text fill="#303030" xml:space="preserve" transform="matrix(1 0 -0 1 0 1448)" font-size="15.8111" font-family="SimSun"><tspan y="-59.4777" x="698.7388 714.91757 731.0963 747.2751 763.45388 779.6326 795.8114 811.9902 828.16897 844.3477 860.5265 876.70529">&#x5fc5;&#x987b;&#x5b8c;&#x5584;&#x515a;&#x534f;&#x8c03;&#x5404;&#x65b9;&#x7684;&#x673a;&#x5236;</tspan></text>
<text fill="#303030" xml:space="preserve" transform="matrix(1 0 -0 1 0 1448)" font-size="15.8111" font-family="SimSun"><tspan y="-59.4777" x="698.3712 714.55 730.72879 746.90756 763.0863 779.2651 795.44387 811.6226 827.8014 843.98019 860.15896 876.3377">&#x5fc5;&#x987b;&#x5b8c;&#x5584;&#x515a;&#x534f;&#x8c03;&#x5404;&#x65b9;&#x7684;&#x673a;&#x5236;</tspan></text>
<path transform="matrix(.06,0,0,.06,0,0)" d="M11516.95 23301.38H16064.311V23644.579H11516.95Z" fill="#ffffff" fill-rule="evenodd"/>
<text fill="#303030" xml:space="preserve" transform="matrix(1 0 -0 1 0 1448)" font-size="15.8111" font-family="SimSun"><tspan y="-33.7379" x="698.7388 714.91757 731.0963 747.2751 763.45388 779.6326 795.8114 811.9902 828.16897 844.3477 860.5265 876.70529 892.88406 909.0628 925.2416 941.42037">&#x5fc5;&#x987b;&#x5b8c;&#x5584;&#x515a;&#x9886;&#x5bfc;&#x5404;&#x9879;&#x4e8b;&#x4e1a;&#x7684;&#x5177;&#x4f53;&#x5236;&#x5ea6;</tspan></text>
<text fill="#303030" xml:space="preserve" transform="matrix(1 0 -0 1 0 1448)" font-size="15.8111" font-family="SimSun"><tspan y="-33.7379" x="698.3712 714.55 730.72879 746.90756 763.0863 779.2651 795.44387 811.6226 827.8014 843.98019 860.15896 876.3377 892.5165 908.69528 924.874 941.0528">&#x5fc5;&#x987b;&#x5b8c;&#x5584;&#x515a;&#x9886;&#x5bfc;&#x5404;&#x9879;&#x4e8b;&#x4e1a;&#x7684;&#x5177;&#x4f53;&#x5236;&#x5ea6;</tspan></text>
</svg>
